<svg id="svg" version="1.1" width="400" height="370.3542234332425" viewBox="0 0 400 370.3542234332425" xmlns="http://www.w3.org/2000/svg" xmlns:xlink="http://www.w3.org/1999/xlink" ><g id="svgg"><path id="path0" d="M197.547 0.247 C 194.574 0.581,191.934 1.414,189.131 2.904 L 187.418 3.815 193.764 3.873 C 197.254 3.904,202.964 3.904,206.454 3.873 L 212.800 3.815 211.086 2.911 C 206.856 0.678,202.080 -0.262,197.547 0.247 M126.431 14.169 C 126.431 16.687,126.495 18.747,126.573 18.747 C 127.308 18.747,141.199 10.342,140.690 10.206 C 139.776 9.961,133.097 9.591,129.600 9.591 L 126.431 9.591 126.431 14.169 M263.282 9.831 C 258.375 10.145,258.182 9.807,265.759 14.163 C 269.396 16.254,272.689 18.150,273.079 18.377 L 273.787 18.790 273.787 14.190 L 273.787 9.591 269.918 9.623 C 267.790 9.640,264.804 9.734,263.282 9.831 M227.893 40.513 C 227.804 40.830,227.690 48.827,227.639 58.284 L 227.546 75.479 233.719 75.363 C 246.046 75.133,254.218 73.071,261.253 68.415 C 263.144 67.164,267.333 63.143,267.191 62.716 C 267.115 62.488,260.784 58.798,233.209 42.906 L 228.053 39.935 227.893 40.513 M152.425 51.403 C 141.725 57.589,132.970 62.738,132.970 62.845 C 132.970 63.279,137.337 67.335,138.965 68.414 C 145.999 73.076,154.150 75.133,166.499 75.363 L 172.672 75.479 172.579 58.393 C 172.493 42.700,172.412 40.067,172.018 40.132 C 171.942 40.144,163.125 45.216,152.425 51.403 M88.770 49.602 C 81.829 51.655,76.018 57.123,73.572 63.905 C 72.163 67.809,71.692 68.142,81.649 58.187 C 86.617 53.221,90.681 49.132,90.681 49.102 C 90.681 49.031,90.858 48.985,88.770 49.602 M318.366 57.984 C 323.161 62.780,327.117 66.606,327.157 66.486 C 327.646 65.017,323.641 57.891,320.833 55.236 C 317.887 52.450,312.073 49.264,309.935 49.264 C 309.777 49.264,313.571 53.188,318.366 57.984 M177.003 65.527 C 177.003 79.477,177.023 80.256,177.384 80.109 C 190.524 74.749,207.437 74.786,220.700 80.203 C 221.893 80.691,222.948 81.090,223.043 81.090 C 223.138 81.090,223.215 74.272,223.215 65.940 L 223.215 50.790 218.996 50.790 C 212.385 50.790,207.427 51.290,202.452 52.458 L 200.109 53.008 197.766 52.458 C 192.791 51.290,187.833 50.790,181.222 50.790 L 177.003 50.790 177.003 65.527 M127.618 78.518 C 122.922 83.311,117.473 90.258,116.728 92.399 C 116.660 92.593,115.792 93.224,114.798 93.802 C 110.903 96.064,105.902 100.149,101.090 105.000 L 98.529 107.581 109.272 118.316 L 120.015 129.051 130.035 128.994 L 140.054 128.937 140.113 128.392 C 141.231 117.933,145.996 106.433,152.544 98.394 L 153.630 97.061 142.471 85.904 L 131.312 74.747 127.618 78.518 M256.921 86.513 L 245.180 98.255 246.261 99.645 C 251.820 106.795,255.942 116.503,257.341 125.743 C 257.534 127.020,257.735 128.286,257.788 128.556 L 257.883 129.046 268.936 129.046 L 279.990 129.046 290.730 118.314 L 301.471 107.581 298.801 104.893 C 294.123 100.184,289.091 96.069,285.281 93.839 C 283.549 92.825,283.434 92.707,282.222 90.698 C 279.721 86.550,276.218 82.280,271.347 77.440 L 268.661 74.771 256.921 86.513 M310.833 106.141 C 309.461 107.323,303.728 112.916,298.093 118.569 L 287.847 128.849 291.553 132.492 C 300.504 141.290,308.474 146.064,316.948 147.702 C 319.146 148.127,324.652 148.247,325.010 147.878 C 325.169 147.714,313.697 104.360,313.421 104.084 C 313.370 104.033,312.205 104.959,310.833 106.141 M86.656 104.439 C 86.252 105.549,75.006 147.886,75.093 147.972 C 75.153 148.032,76.551 148.083,78.200 148.085 C 87.927 148.100,97.687 143.069,108.447 132.492 L 112.153 128.849 101.907 118.578 C 93.264 109.913,90.444 107.215,87.144 104.452 C 86.825 104.186,86.749 104.184,86.656 104.439 M41.199 107.019 C 39.940 108.085,37.539 110.337,35.863 112.024 L 32.817 115.091 36.081 118.228 C 37.877 119.954,39.375 121.340,39.411 121.308 C 39.447 121.276,40.406 117.781,41.543 113.541 C 42.679 109.300,43.662 105.659,43.726 105.450 C 43.929 104.793,43.555 105.025,41.199 107.019 M356.410 105.108 C 356.471 105.731,360.728 121.002,360.840 121.001 C 360.927 121.000,362.393 119.669,364.096 118.042 L 367.193 115.084 363.488 111.435 C 360.457 108.451,356.381 104.807,356.410 105.108 M159.976 111.079 C 156.919 116.100,154.657 121.949,153.827 126.975 L 153.539 128.719 157.128 128.779 C 159.101 128.812,160.752 128.803,160.796 128.759 C 160.840 128.715,160.851 124.428,160.820 119.233 L 160.763 109.787 159.976 111.079 M0.000 244.478 L 0.000 318.275 37.657 318.192 C 76.676 318.106,76.427 318.111,84.360 317.152 C 95.148 315.848,104.712 313.470,112.698 310.105 C 112.983 309.985,113.016 310.508,112.961 314.221 L 112.898 318.474 131.763 318.474 L 150.628 318.474 150.623 276.163 C 150.619 235.087,150.606 233.751,150.181 230.440 C 145.613 194.849,122.865 175.520,80.763 171.455 C 73.505 170.754,69.179 170.681,34.744 170.681 L 0.000 170.681 0.000 244.478 M258.477 170.954 C 258.598 171.104,260.506 174.022,262.718 177.439 C 264.930 180.856,270.499 189.439,275.092 196.512 C 279.686 203.586,285.353 212.316,287.684 215.913 C 290.016 219.510,292.012 222.546,292.120 222.659 C 292.236 222.782,292.316 212.241,292.316 196.774 L 292.316 170.681 275.287 170.681 C 261.691 170.681,258.302 170.736,258.477 170.954 M292.534 197.061 L 292.534 223.441 298.638 232.834 C 301.995 238.000,304.741 242.317,304.741 242.428 C 304.741 242.598,292.876 261.058,292.361 261.689 C 292.263 261.809,286.801 270.196,280.222 280.327 C 267.956 299.217,256.525 316.808,255.820 317.877 L 255.424 318.478 277.941 318.422 L 300.459 318.365 314.151 296.567 C 321.682 284.579,327.918 274.745,328.009 274.715 C 328.100 274.684,333.932 284.493,340.968 296.512 L 353.762 318.365 376.772 318.421 C 389.428 318.451,399.782 318.413,399.782 318.335 C 399.782 318.140,401.274 320.490,379.876 286.975 C 376.278 281.341,369.265 270.354,364.291 262.561 C 359.317 254.768,354.387 247.051,353.336 245.412 L 351.424 242.433 374.825 206.556 L 398.226 170.679 375.742 170.735 L 353.258 170.790 341.152 191.325 C 334.494 202.619,328.984 211.864,328.908 211.870 C 328.832 211.875,323.292 202.610,316.598 191.281 L 304.425 170.681 298.480 170.681 L 292.534 170.681 292.534 197.061 M74.777 201.264 C 96.508 204.997,106.237 218.282,106.257 244.251 C 106.278 270.170,96.692 283.779,75.749 287.566 C 73.277 288.012,72.285 288.045,57.711 288.161 L 42.289 288.283 42.289 244.510 L 42.289 200.736 57.493 200.822 C 70.309 200.894,73.024 200.963,74.777 201.264 M131.226 298.488 C 131.226 298.525,130.907 298.844,130.518 299.196 L 129.809 299.837 130.450 299.128 C 131.046 298.468,131.226 298.319,131.226 298.488 M247.646 335.999 C 246.558 337.485,245.668 338.761,245.668 338.833 C 245.668 338.905,246.726 338.965,248.019 338.965 L 250.370 338.965 253.305 336.142 L 256.240 333.319 252.932 333.308 L 249.624 333.297 247.646 335.999 M197.971 340.712 C 186.321 342.326,181.042 355.369,188.208 364.840 C 193.008 371.184,204.268 372.200,210.035 366.809 L 211.257 365.668 208.874 363.446 L 206.491 361.224 205.752 361.994 C 201.672 366.245,194.016 363.716,192.691 357.680 C 190.889 349.474,199.977 343.162,205.726 348.626 L 206.438 349.303 208.614 347.135 C 211.099 344.659,211.084 344.700,209.922 343.705 C 207.252 341.420,202.128 340.137,197.971 340.712 M246.540 340.713 C 237.501 341.941,232.079 349.798,234.003 358.878 C 237.079 373.397,258.985 374.385,263.698 360.218 C 264.518 357.750,264.566 353.210,263.797 350.736 C 261.615 343.715,254.566 339.621,246.540 340.713 M366.037 340.712 C 348.794 343.110,348.692 367.715,365.914 370.159 C 370.502 370.810,375.058 369.543,378.160 366.753 L 379.311 365.718 376.958 363.479 L 374.605 361.239 373.733 362.068 C 369.986 365.631,363.624 364.307,361.341 359.488 C 357.493 351.367,366.962 342.795,373.550 348.434 L 374.423 349.181 376.694 346.891 L 378.965 344.601 377.984 343.737 C 375.399 341.459,370.175 340.136,366.037 340.712 M23.542 355.422 L 23.542 369.482 26.921 369.482 L 30.300 369.482 30.300 364.033 L 30.300 358.583 35.865 358.583 L 41.430 358.583 41.369 355.804 L 41.308 353.025 35.798 352.966 L 30.287 352.908 30.348 350.023 L 30.409 347.139 36.349 347.081 L 42.289 347.023 42.289 344.193 L 42.289 341.362 32.916 341.362 L 23.542 341.362 23.542 355.422 M50.403 351.335 C 50.495 362.641,50.518 362.815,52.345 365.550 C 56.884 372.348,69.672 371.733,73.314 364.543 C 74.611 361.981,74.617 361.920,74.716 351.226 L 74.806 341.362 71.308 341.362 L 67.810 341.362 67.747 351.008 C 67.686 360.405,67.672 360.676,67.215 361.526 C 65.135 365.390,59.221 365.054,57.616 360.981 C 57.271 360.107,57.222 358.984,57.160 350.681 L 57.090 341.362 53.707 341.362 L 50.323 341.362 50.403 351.335 M84.142 355.422 L 84.142 369.482 87.512 369.482 L 90.882 369.482 90.746 360.292 C 90.657 354.257,90.684 351.148,90.825 351.235 C 90.944 351.308,93.535 355.440,96.583 360.416 L 102.125 369.463 106.104 369.473 L 110.082 369.482 110.082 355.422 L 110.082 341.362 106.709 341.362 L 103.336 341.362 103.475 350.553 C 103.566 356.595,103.540 359.697,103.398 359.610 C 103.280 359.536,100.689 355.405,97.640 350.429 L 92.098 341.381 88.120 341.372 L 84.142 341.362 84.142 355.422 M119.891 355.402 L 119.891 369.482 126.331 369.482 C 134.608 369.482,136.933 369.041,140.339 366.823 C 148.895 361.251,148.151 347.373,139.069 343.123 C 135.959 341.668,134.908 341.519,127.030 341.416 L 119.891 341.322 119.891 355.402 M158.861 349.477 C 156.984 353.946,154.324 360.277,152.950 363.547 L 150.452 369.492 154.170 369.433 L 157.889 369.373 158.888 366.699 L 159.887 364.026 165.417 364.084 L 170.946 364.142 171.989 366.757 L 173.032 369.373 176.761 369.433 C 178.812 369.466,180.489 369.417,180.487 369.324 C 180.486 369.231,177.892 362.926,174.725 355.313 L 168.965 341.471 165.619 341.412 L 162.273 341.352 158.861 349.477 M218.202 355.422 L 218.202 369.482 221.580 369.482 L 224.959 369.482 224.959 355.422 L 224.959 341.362 221.580 341.362 L 218.202 341.362 218.202 355.422 M272.916 355.422 L 272.916 369.482 276.271 369.482 L 279.626 369.482 279.507 360.294 C 279.436 354.808,279.468 351.154,279.587 351.227 C 279.695 351.294,282.285 355.425,285.342 360.406 L 290.899 369.462 294.768 369.472 L 298.638 369.482 298.638 355.422 L 298.638 341.362 295.364 341.362 L 292.089 341.362 292.239 350.553 C 292.337 356.595,292.314 359.697,292.172 359.610 C 292.053 359.536,289.462 355.405,286.414 350.429 L 280.872 341.381 276.894 341.372 L 272.916 341.362 272.916 355.422 M325.337 353.188 C 322.603 359.692,319.943 366.021,319.426 367.253 L 318.487 369.493 322.213 369.433 L 325.939 369.373 326.926 366.703 L 327.912 364.033 333.414 364.033 L 338.917 364.033 339.989 366.703 L 341.061 369.373 344.834 369.433 C 348.369 369.489,348.597 369.468,348.463 369.106 C 348.384 368.893,345.762 362.564,342.636 355.041 L 336.953 341.362 333.630 341.362 L 330.307 341.362 325.337 353.188 M252.099 347.267 C 255.553 348.559,257.700 352.752,257.028 356.893 C 255.452 366.609,242.532 366.539,241.026 356.807 C 239.968 349.976,245.834 344.923,252.099 347.267 M131.918 347.249 C 137.166 348.008,139.892 351.661,139.086 356.854 C 138.354 361.571,135.389 363.597,129.219 363.597 L 126.431 363.597 126.431 355.459 C 126.431 350.983,126.496 347.255,126.576 347.175 C 126.791 346.960,130.247 347.007,131.918 347.249 M167.382 354.028 C 168.237 356.378,168.937 358.365,168.937 358.442 C 168.937 358.520,167.368 358.583,165.450 358.583 C 163.531 358.583,161.962 358.505,161.962 358.410 C 161.962 358.207,165.207 349.426,165.394 349.123 C 165.464 349.010,165.590 349.106,165.674 349.336 C 165.758 349.566,166.527 351.678,167.382 354.028 M335.236 353.517 C 336.122 356.004,336.893 358.161,336.948 358.311 C 337.027 358.522,336.256 358.583,333.538 358.583 C 331.607 358.583,330.025 358.510,330.022 358.420 C 330.014 358.134,333.401 348.994,333.515 348.995 C 333.575 348.996,334.349 351.031,335.236 353.517 " stroke="none" fill="#bebebe" fill-rule="evenodd"></path><path id="path1" d="M197.984 0.150 C 198.193 0.205,198.537 0.205,198.747 0.150 C 198.956 0.095,198.785 0.051,198.365 0.051 C 197.946 0.051,197.774 0.095,197.984 0.150 M201.365 0.154 C 201.636 0.206,202.028 0.204,202.237 0.150 C 202.445 0.095,202.223 0.053,201.744 0.055 C 201.264 0.057,201.094 0.102,201.365 0.154 M185.538 5.148 C 182.228 7.792,179.868 11.019,178.340 14.990 C 178.122 15.558,177.866 16.218,177.771 16.458 C 177.677 16.698,177.572 17.090,177.539 17.330 C 177.506 17.569,177.378 18.354,177.255 19.074 C 176.819 21.620,176.752 23.465,177.019 25.620 C 177.167 26.815,177.298 28.063,177.309 28.392 C 177.320 28.722,177.392 28.992,177.467 28.992 C 177.543 28.992,177.716 29.434,177.852 29.975 C 177.989 30.515,178.343 31.507,178.640 32.178 C 178.936 32.849,179.125 33.486,179.059 33.593 C 178.993 33.700,179.025 33.787,179.130 33.787 C 179.424 33.787,180.285 35.442,180.105 35.663 C 180.017 35.770,180.033 35.788,180.139 35.701 C 180.245 35.615,180.721 36.105,181.196 36.791 C 181.671 37.477,182.418 38.411,182.855 38.866 C 183.293 39.321,183.627 39.738,183.597 39.793 C 183.567 39.847,183.601 39.881,183.674 39.868 C 183.746 39.855,184.212 40.229,184.709 40.699 C 187.285 43.133,191.189 45.122,195.115 46.001 C 197.220 46.472,204.340 46.597,204.605 46.168 C 204.664 46.073,204.892 45.995,205.111 45.995 C 206.509 45.995,211.010 44.006,213.487 42.294 C 215.140 41.151,220.085 36.185,219.570 36.185 C 219.517 36.185,219.671 35.866,219.912 35.477 C 223.455 29.743,224.262 22.509,222.109 15.786 C 221.748 14.660,221.465 13.675,221.481 13.597 C 221.496 13.519,221.421 13.395,221.314 13.321 C 221.206 13.248,220.748 12.519,220.295 11.702 C 219.842 10.885,219.039 9.684,218.510 9.035 C 217.981 8.385,217.548 7.815,217.548 7.767 C 217.548 7.656,215.831 5.937,215.629 5.845 C 215.545 5.808,214.937 5.356,214.278 4.842 L 213.079 3.908 200.143 3.861 L 187.207 3.815 185.538 5.148 M126.304 25.613 C 126.312 34.365,126.390 41.967,126.476 42.507 C 126.562 43.046,126.792 44.861,126.987 46.540 C 127.412 50.197,128.232 53.563,129.462 56.707 C 130.364 59.014,132.492 62.705,132.877 62.632 C 132.988 62.611,141.850 57.535,152.570 51.352 C 163.290 45.168,172.094 40.109,172.134 40.109 C 172.174 40.109,172.207 40.322,172.207 40.581 C 172.207 40.841,172.263 40.998,172.331 40.930 C 172.399 40.861,172.301 39.692,172.113 38.332 C 171.212 31.825,169.211 26.379,166.314 22.552 C 165.728 21.778,165.293 21.144,165.347 21.144 C 165.402 21.144,164.867 20.612,164.160 19.962 C 163.452 19.312,162.889 18.748,162.908 18.709 C 162.927 18.670,162.906 18.658,162.860 18.684 C 162.815 18.709,162.374 18.402,161.879 18.000 C 161.385 17.599,160.245 16.801,159.346 16.226 C 158.447 15.651,157.639 15.076,157.551 14.948 C 157.463 14.819,157.389 14.789,157.388 14.882 C 157.383 15.096,155.584 14.191,155.371 13.867 C 155.283 13.733,155.210 13.690,155.208 13.770 C 155.206 13.851,154.395 13.591,153.406 13.192 C 152.417 12.794,151.019 12.299,150.300 12.093 C 149.580 11.886,148.895 11.661,148.778 11.591 C 148.660 11.522,148.415 11.448,148.233 11.427 C 148.051 11.406,146.676 11.140,145.177 10.836 C 142.497 10.293,139.788 9.903,140.778 10.202 C 141.216 10.335,127.236 18.747,126.578 18.747 C 126.501 18.747,126.405 16.711,126.364 14.223 C 126.322 11.736,126.295 16.861,126.304 25.613 M134.771 9.748 C 135.103 9.798,135.593 9.796,135.861 9.745 C 136.129 9.693,135.858 9.652,135.259 9.654 C 134.659 9.655,134.440 9.698,134.771 9.748 M264.251 9.747 C 264.580 9.797,265.120 9.797,265.450 9.747 C 265.779 9.697,265.510 9.657,264.850 9.657 C 264.191 9.657,263.921 9.697,264.251 9.747 M273.785 14.104 L 273.678 18.726 266.409 14.542 C 260.306 11.030,259.222 10.334,259.651 10.204 C 260.490 9.951,258.159 10.241,255.586 10.709 C 245.368 12.571,237.303 17.246,233.073 23.760 C 232.334 24.899,231.626 25.952,231.500 26.099 C 231.374 26.247,231.289 26.394,231.311 26.426 C 231.419 26.587,230.784 28.120,230.610 28.120 C 230.499 28.120,230.431 28.193,230.458 28.283 C 230.536 28.544,229.931 30.518,229.773 30.518 C 229.695 30.518,229.621 30.689,229.610 30.899 C 229.599 31.109,229.339 32.262,229.032 33.460 C 228.386 35.985,227.466 42.055,227.978 40.419 C 228.103 40.021,265.330 61.060,267.097 62.527 C 268.449 63.648,272.206 54.040,273.265 46.757 C 273.605 44.413,274.072 22.126,273.953 13.842 L 273.891 9.482 273.785 14.104 M227.626 42.725 C 227.626 43.144,227.670 43.316,227.725 43.106 C 227.780 42.896,227.780 42.553,227.725 42.343 C 227.670 42.134,227.626 42.305,227.626 42.725 M227.464 60.926 L 227.466 75.531 230.954 75.540 L 234.441 75.549 231.010 75.480 L 227.578 75.411 227.520 60.866 L 227.461 46.322 227.464 60.926 M172.696 61.194 L 172.643 75.412 169.101 75.477 L 165.559 75.543 169.108 75.592 C 171.783 75.628,172.682 75.573,172.761 75.368 C 172.818 75.218,172.839 68.768,172.807 61.035 L 172.749 46.975 172.696 61.194 M91.880 48.751 C 91.520 48.804,91.079 48.907,90.899 48.981 C 90.719 49.055,90.425 49.096,90.245 49.072 C 90.008 49.040,89.991 49.078,90.183 49.209 C 90.365 49.333,87.676 52.162,81.650 58.187 C 74.663 65.172,72.827 66.899,72.734 66.571 C 72.626 66.189,72.618 66.191,72.636 66.594 C 72.647 66.834,72.590 67.177,72.511 67.357 C 71.959 68.604,71.963 73.395,72.518 76.185 C 72.709 77.144,72.892 78.076,72.925 78.256 C 72.958 78.436,73.048 78.779,73.125 79.019 C 73.202 79.259,73.251 79.542,73.235 79.649 C 73.219 79.755,73.287 79.902,73.387 79.976 C 73.488 80.049,74.049 81.076,74.634 82.257 C 75.220 83.438,76.268 85.120,76.963 85.995 C 77.658 86.870,78.160 87.661,78.078 87.752 C 77.996 87.843,78.036 87.857,78.166 87.782 C 78.297 87.708,78.787 88.043,79.256 88.526 C 84.029 93.444,92.216 95.976,99.276 94.718 C 100.227 94.548,101.085 94.459,101.184 94.520 C 101.282 94.581,101.362 94.547,101.362 94.445 C 101.362 94.343,101.825 94.136,102.391 93.984 C 104.663 93.376,109.420 90.724,110.601 89.406 C 110.827 89.154,111.099 89.002,111.206 89.068 C 111.313 89.134,111.373 89.107,111.341 89.008 C 111.255 88.752,112.327 87.724,112.589 87.811 C 112.708 87.851,112.731 87.808,112.639 87.716 C 112.547 87.624,112.757 87.248,113.106 86.881 C 117.483 82.272,119.765 72.910,118.041 66.642 C 117.850 65.948,117.748 65.295,117.813 65.189 C 117.878 65.083,117.824 64.960,117.692 64.917 C 117.561 64.873,117.438 64.570,117.419 64.244 C 117.400 63.918,117.324 63.651,117.250 63.651 C 117.177 63.651,116.950 63.216,116.747 62.683 C 116.219 61.302,114.407 58.354,113.258 57.009 C 112.718 56.378,112.347 55.783,112.433 55.689 C 112.518 55.594,112.479 55.578,112.345 55.655 C 112.044 55.826,111.326 55.074,111.553 54.825 C 111.643 54.725,111.601 54.710,111.459 54.791 C 111.318 54.873,111.135 54.831,111.053 54.698 C 110.264 53.422,105.116 50.487,102.120 49.605 C 101.044 49.289,99.918 48.956,99.619 48.866 C 99.024 48.687,92.935 48.597,91.880 48.751 M300.381 48.851 C 300.082 48.947,298.956 49.286,297.880 49.604 C 294.880 50.489,289.735 53.424,288.947 54.698 C 288.865 54.831,288.682 54.873,288.541 54.791 C 288.399 54.710,288.355 54.723,288.442 54.819 C 288.529 54.915,288.045 55.593,287.367 56.325 C 285.833 57.981,284.296 60.314,283.491 62.207 C 283.154 63.001,282.788 63.651,282.679 63.651 C 282.570 63.651,282.527 63.725,282.583 63.816 C 282.639 63.907,282.442 64.863,282.144 65.941 C 280.689 71.217,281.369 77.360,283.969 82.443 C 284.503 83.487,284.923 84.408,284.903 84.490 C 284.884 84.571,284.960 84.698,285.073 84.771 C 285.479 85.035,287.494 87.584,287.399 87.714 C 287.346 87.787,287.357 87.809,287.425 87.762 C 287.612 87.630,288.722 88.799,288.643 89.046 C 288.605 89.166,288.641 89.197,288.723 89.116 C 288.804 89.034,289.377 89.379,289.994 89.882 C 290.612 90.385,291.485 91.024,291.935 91.302 C 292.384 91.579,292.752 91.913,292.752 92.043 C 292.752 92.173,292.808 92.224,292.876 92.156 C 292.944 92.087,293.806 92.409,294.790 92.870 C 295.774 93.332,297.043 93.833,297.609 93.984 C 298.175 94.136,298.638 94.343,298.638 94.445 C 298.638 94.547,298.718 94.581,298.815 94.521 C 298.913 94.460,299.870 94.564,300.941 94.751 C 310.969 96.503,321.271 90.986,325.792 81.443 C 326.323 80.322,326.757 79.244,326.757 79.048 C 326.757 78.852,326.835 78.692,326.929 78.692 C 327.023 78.692,327.106 78.520,327.113 78.311 C 327.120 78.101,327.296 77.144,327.503 76.185 C 327.944 74.148,328.008 70.176,327.637 67.908 C 327.402 66.477,327.193 65.815,327.193 66.502 C 327.193 66.671,323.275 62.893,318.487 58.105 C 313.698 53.317,309.822 49.332,309.874 49.248 C 310.146 48.808,301.627 48.452,300.381 48.851 M186.866 50.940 C 187.076 50.995,187.420 50.995,187.629 50.940 C 187.839 50.886,187.668 50.841,187.248 50.841 C 186.828 50.841,186.657 50.886,186.866 50.940 M212.589 50.940 C 212.798 50.995,213.142 50.995,213.351 50.940 C 213.561 50.886,213.390 50.841,212.970 50.841 C 212.550 50.841,212.379 50.886,212.589 50.940 M78.972 55.101 C 78.261 55.811,77.729 56.458,77.857 56.458 C 77.907 56.458,78.381 56.016,78.910 55.477 C 79.440 54.937,79.807 54.496,79.726 54.496 C 79.645 54.496,79.306 54.768,78.972 55.101 M320.981 55.368 C 321.834 56.242,321.962 56.340,321.962 56.124 C 321.962 55.946,320.473 54.496,320.290 54.496 C 320.202 54.496,320.513 54.888,320.981 55.368 M77.136 57.275 C 76.509 58.032,76.243 58.420,76.351 58.420 C 76.411 58.420,76.722 58.076,77.042 57.657 C 77.636 56.878,77.708 56.584,77.136 57.275 M325.247 61.144 C 325.247 61.264,325.387 61.608,325.559 61.907 C 325.730 62.207,325.870 62.354,325.870 62.234 C 325.870 62.114,325.730 61.771,325.559 61.471 C 325.387 61.172,325.247 61.025,325.247 61.144 M135.041 65.395 C 135.509 65.875,135.941 66.267,136.001 66.267 C 136.061 66.267,135.727 65.875,135.259 65.395 C 134.791 64.916,134.358 64.523,134.298 64.523 C 134.238 64.523,134.573 64.916,135.041 65.395 M264.838 65.559 L 264.087 66.376 264.905 65.625 C 265.354 65.212,265.722 64.844,265.722 64.807 C 265.722 64.641,265.538 64.798,264.838 65.559 M161.362 75.355 C 161.572 75.409,161.916 75.409,162.125 75.355 C 162.335 75.300,162.163 75.255,161.744 75.255 C 161.324 75.255,161.153 75.300,161.362 75.355 M238.093 75.355 C 238.302 75.409,238.646 75.409,238.856 75.355 C 239.065 75.300,238.894 75.255,238.474 75.255 C 238.054 75.255,237.883 75.300,238.093 75.355 M194.932 76.227 C 195.142 76.281,195.485 76.281,195.695 76.227 C 195.905 76.172,195.733 76.127,195.313 76.127 C 194.894 76.127,194.722 76.172,194.932 76.227 M202.125 76.227 C 202.335 76.281,202.678 76.281,202.888 76.227 C 203.098 76.172,202.926 76.127,202.507 76.127 C 202.087 76.127,201.916 76.172,202.125 76.227 M195.749 89.412 C 195.330 89.493,193.712 89.725,192.155 89.927 C 182.951 91.121,171.517 96.829,166.217 102.876 C 165.855 103.289,165.142 104.062,164.632 104.594 C 164.123 105.126,163.706 105.622,163.706 105.696 C 163.706 105.771,163.313 106.261,162.834 106.785 C 162.354 107.310,161.962 107.787,161.962 107.846 C 161.962 107.904,161.595 108.452,161.148 109.062 C 160.700 109.672,160.455 110.096,160.603 110.004 C 160.815 109.873,160.872 111.852,160.872 119.328 L 160.872 128.818 157.112 128.883 C 155.044 128.919,173.804 128.908,198.801 128.858 C 223.798 128.808,244.286 128.738,244.330 128.701 C 244.679 128.405,242.797 121.325,241.510 118.089 C 241.023 116.862,240.606 115.760,240.584 115.640 C 240.563 115.520,240.485 115.373,240.411 115.313 C 240.337 115.253,240.053 114.763,239.780 114.223 C 238.396 111.491,234.577 105.968,233.164 104.655 C 232.855 104.368,232.655 104.047,232.720 103.941 C 232.786 103.836,232.758 103.772,232.659 103.799 C 232.435 103.861,230.304 101.750,230.364 101.526 C 230.389 101.436,230.333 101.387,230.240 101.417 C 230.148 101.447,229.504 100.981,228.809 100.381 C 226.987 98.810,224.037 96.735,221.962 95.566 C 220.973 95.008,220.163 94.460,220.163 94.348 C 220.163 94.235,220.072 94.200,219.960 94.269 C 219.739 94.405,217.050 93.122,216.930 92.823 C 216.889 92.722,216.783 92.686,216.692 92.742 C 216.602 92.798,215.786 92.566,214.879 92.228 C 213.973 91.890,212.583 91.438,211.792 91.224 C 211.001 91.010,210.354 90.768,210.354 90.686 C 210.354 90.604,210.183 90.545,209.973 90.555 C 209.257 90.587,205.995 89.949,205.995 89.777 C 205.995 89.682,205.866 89.654,205.710 89.714 C 205.553 89.774,204.548 89.720,203.475 89.594 C 201.090 89.312,196.786 89.211,195.749 89.412 M64.080 95.769 C 64.016 95.836,63.414 95.933,62.742 95.983 C 62.070 96.034,61.436 96.123,61.332 96.182 C 61.103 96.312,57.962 97.105,57.657 97.109 C 57.537 97.110,57.390 97.166,57.330 97.233 C 57.270 97.299,56.583 97.582,55.804 97.861 C 55.025 98.139,53.725 98.699,52.916 99.105 C 52.106 99.510,51.443 99.767,51.441 99.676 C 51.439 99.584,51.365 99.611,51.277 99.735 C 51.084 100.007,48.025 101.823,47.822 101.787 C 47.743 101.773,47.618 101.848,47.545 101.953 C 47.471 102.059,46.578 102.743,45.559 103.474 C 44.197 104.449,43.696 104.938,43.670 105.316 C 43.650 105.600,42.788 108.970,41.753 112.807 C 40.719 116.643,39.771 120.165,39.647 120.633 L 39.420 121.483 37.094 119.219 C 35.815 117.973,38.978 121.171,44.124 126.325 C 49.270 131.478,53.463 135.768,53.443 135.858 C 53.423 135.948,53.490 135.997,53.593 135.967 C 53.867 135.887,56.000 137.930,55.835 138.115 C 55.758 138.201,55.799 138.212,55.926 138.140 C 56.053 138.068,56.716 138.524,57.398 139.154 C 58.080 139.783,58.638 140.265,58.638 140.224 C 58.638 140.183,59.177 140.557,59.837 141.055 C 60.496 141.552,61.035 142.062,61.035 142.188 C 61.035 142.313,61.096 142.355,61.171 142.281 C 61.245 142.206,61.867 142.526,62.551 142.991 C 66.072 145.382,74.209 148.643,74.908 147.944 C 74.949 147.903,77.585 138.165,80.765 126.305 C 87.517 101.121,86.651 104.034,87.229 104.548 C 87.688 104.957,87.689 104.956,87.390 104.469 C 87.224 104.199,87.011 103.978,86.917 103.978 C 86.691 103.978,84.490 102.244,84.396 101.993 C 84.356 101.886,84.244 101.798,84.147 101.798 C 84.050 101.798,83.102 101.251,82.040 100.581 C 79.583 99.032,76.696 97.655,74.332 96.904 C 73.313 96.580,72.332 96.261,72.153 96.195 C 71.389 95.915,64.296 95.541,64.080 95.769 M330.460 95.764 C 330.399 95.829,329.859 95.927,329.261 95.980 C 328.663 96.034,328.027 96.132,327.847 96.199 C 327.668 96.265,326.952 96.477,326.258 96.670 C 324.364 97.196,321.386 98.545,319.097 99.913 C 316.148 101.677,315.865 101.857,315.232 102.380 C 314.917 102.640,314.383 103.081,314.046 103.361 L 313.433 103.870 319.262 125.559 C 322.467 137.488,325.094 147.420,325.099 147.629 C 325.103 147.839,325.129 148.011,325.155 148.011 C 327.374 148.011,333.541 145.541,337.038 143.252 C 337.956 142.651,338.766 142.217,338.836 142.288 C 338.907 142.358,338.965 142.313,338.965 142.188 C 338.965 142.062,339.504 141.552,340.163 141.055 C 340.823 140.557,341.362 140.183,341.362 140.224 C 341.362 140.265,341.920 139.783,342.602 139.154 C 343.284 138.524,343.947 138.068,344.074 138.140 C 344.201 138.212,344.243 138.202,344.167 138.116 C 344.002 137.932,346.350 135.670,346.623 135.749 C 346.727 135.779,346.795 135.730,346.775 135.640 C 346.755 135.550,350.899 131.309,355.985 126.216 C 361.071 121.122,364.230 117.928,363.006 119.118 C 361.494 120.588,360.747 121.181,360.674 120.968 C 360.616 120.795,359.627 117.123,358.477 112.807 C 356.151 104.074,356.518 104.845,353.842 103.060 C 353.093 102.560,352.480 102.072,352.480 101.975 C 352.480 101.878,352.406 101.820,352.316 101.847 C 352.113 101.908,348.943 100.044,348.723 99.735 C 348.635 99.611,348.561 99.576,348.559 99.658 C 348.557 99.740,347.649 99.383,346.540 98.865 C 345.431 98.347,344.106 97.799,343.597 97.647 C 343.087 97.494,342.670 97.281,342.670 97.173 C 342.670 97.065,342.594 97.024,342.501 97.082 C 342.354 97.173,339.659 96.540,338.747 96.200 C 338.027 95.932,330.668 95.545,330.460 95.764 M100.377 105.559 L 98.420 107.575 100.436 105.618 C 102.309 103.800,102.552 103.542,102.393 103.542 C 102.361 103.542,101.453 104.450,100.377 105.559 M299.510 105.613 C 300.523 106.632,301.402 107.466,301.462 107.466 C 301.522 107.466,300.741 106.632,299.728 105.613 C 298.714 104.594,297.835 103.760,297.775 103.760 C 297.715 103.760,298.496 104.594,299.510 105.613 M35.733 111.948 C 34.123 113.574,32.761 114.972,32.705 115.054 C 32.649 115.137,33.998 113.832,35.702 112.156 C 37.407 110.479,38.801 109.081,38.801 109.049 C 38.801 108.874,38.404 109.250,35.733 111.948 M364.139 112.021 C 365.816 113.712,367.234 115.095,367.290 115.095 C 367.456 115.095,362.004 109.554,361.526 109.237 C 361.286 109.077,362.462 110.330,364.139 112.021 M289.917 126.541 L 287.635 128.831 289.810 130.955 L 291.986 133.079 289.921 130.953 L 287.856 128.828 290.136 126.539 C 291.391 125.281,292.368 124.251,292.308 124.251 C 292.248 124.251,291.172 125.281,289.917 126.541 M110.079 126.703 L 112.144 128.828 110.079 130.954 L 108.014 133.079 110.191 130.954 L 112.368 128.828 110.191 126.703 L 108.014 124.578 110.079 126.703 M76.131 148.161 C 76.341 148.216,76.684 148.216,76.894 148.161 C 77.104 148.106,76.932 148.061,76.512 148.061 C 76.093 148.061,75.921 148.106,76.131 148.161 M323.106 148.161 C 323.316 148.216,323.659 148.216,323.869 148.161 C 324.079 148.106,323.907 148.061,323.488 148.061 C 323.068 148.061,322.896 148.106,323.106 148.161 M16.294 170.627 C 25.316 170.658,40.079 170.658,49.101 170.627 C 58.123 170.595,50.741 170.569,32.698 170.569 C 14.654 170.569,7.272 170.595,16.294 170.627 M244.315 170.626 L 230.210 170.684 230.067 171.446 C 229.989 171.864,229.858 172.207,229.777 172.207 C 229.696 172.207,229.629 172.379,229.627 172.589 C 229.624 173.053,227.315 181.427,227.148 181.580 C 227.083 181.640,227.012 181.885,226.991 182.124 C 226.938 182.711,223.591 194.740,223.442 194.877 C 223.377 194.937,223.310 195.164,223.292 195.381 C 223.246 195.933,220.972 204.117,220.827 204.251 C 220.762 204.311,220.691 204.555,220.669 204.794 C 220.616 205.381,217.269 217.410,217.120 217.548 C 217.056 217.608,216.988 217.834,216.970 218.051 C 216.925 218.603,214.650 226.788,214.505 226.921 C 214.440 226.981,214.369 227.226,214.348 227.465 C 214.295 228.051,210.948 240.080,210.799 240.218 C 210.734 240.278,210.667 240.505,210.649 240.722 C 210.603 241.273,208.329 249.458,208.184 249.591 C 208.119 249.651,208.048 249.896,208.026 250.135 C 207.955 250.927,204.594 262.778,204.419 262.852 C 204.325 262.893,204.293 262.999,204.349 263.088 C 204.452 263.256,203.035 268.536,202.832 268.740 C 202.547 269.024,199.273 258.602,199.155 257.039 C 199.140 256.839,199.056 256.622,198.967 256.556 C 198.879 256.490,198.775 256.142,198.735 255.783 C 198.696 255.424,198.606 255.036,198.536 254.922 C 198.352 254.624,193.338 237.145,193.286 236.621 C 193.262 236.381,193.176 236.135,193.095 236.074 C 193.014 236.012,192.916 235.669,192.877 235.311 C 192.838 234.952,192.752 234.610,192.686 234.550 C 192.540 234.420,187.854 218.071,187.818 217.570 C 187.804 217.378,187.721 217.167,187.632 217.101 C 187.544 217.035,187.440 216.687,187.400 216.328 C 187.361 215.969,187.271 215.581,187.200 215.467 C 187.017 215.169,182.002 197.690,181.951 197.166 C 181.927 196.926,181.841 196.680,181.760 196.619 C 181.679 196.557,181.581 196.214,181.542 195.856 C 181.503 195.497,181.417 195.155,181.350 195.095 C 181.205 194.964,176.518 178.616,176.483 178.115 C 176.469 177.923,176.386 177.712,176.297 177.646 C 176.209 177.580,176.099 177.236,176.054 176.883 C 176.008 176.529,175.868 175.984,175.741 175.671 C 175.615 175.359,175.235 174.108,174.898 172.892 L 174.284 170.681 143.609 170.681 L 112.934 170.681 112.870 174.802 C 112.835 177.069,112.880 178.878,112.970 178.822 C 113.060 178.766,113.134 178.831,113.134 178.965 C 113.134 179.099,113.232 179.148,113.351 179.074 C 113.471 178.999,113.569 179.032,113.569 179.146 C 113.569 179.345,114.595 179.728,114.932 179.654 C 115.022 179.635,115.095 179.722,115.095 179.849 C 115.095 179.976,115.193 180.020,115.313 179.946 C 115.433 179.871,115.531 179.920,115.531 180.054 C 115.531 180.189,115.629 180.238,115.749 180.163 C 115.869 180.089,115.967 180.138,115.967 180.272 C 115.967 180.407,116.065 180.456,116.185 180.381 C 116.305 180.307,116.403 180.344,116.403 180.463 C 116.403 180.680,117.241 181.051,117.548 180.970 C 117.638 180.946,117.711 181.030,117.711 181.157 C 117.711 181.284,117.809 181.328,117.929 181.253 C 118.049 181.179,118.147 181.228,118.147 181.362 C 118.147 181.496,118.245 181.545,118.365 181.471 C 118.485 181.397,118.583 181.446,118.583 181.580 C 118.583 181.714,118.681 181.763,118.801 181.689 C 118.921 181.615,119.019 181.643,119.019 181.751 C 119.019 181.961,120.110 182.553,120.381 182.490 C 120.471 182.469,120.545 182.567,120.545 182.707 C 120.545 182.847,120.604 182.901,120.677 182.829 C 120.750 182.756,121.010 182.883,121.255 183.112 C 121.500 183.340,121.774 183.482,121.863 183.427 C 121.952 183.372,122.084 183.480,122.155 183.666 C 122.227 183.853,122.385 183.945,122.505 183.870 C 122.626 183.796,122.725 183.817,122.725 183.918 C 122.725 184.086,123.627 184.705,124.133 184.885 C 124.249 184.926,124.633 185.224,124.988 185.548 C 125.343 185.872,125.704 186.094,125.791 186.040 C 125.878 185.986,126.005 186.089,126.074 186.268 C 126.143 186.447,126.325 186.594,126.480 186.594 C 126.635 186.594,126.890 186.800,127.047 187.051 C 127.204 187.303,127.391 187.450,127.461 187.380 C 127.532 187.309,127.727 187.446,127.895 187.685 C 128.062 187.924,128.302 188.120,128.428 188.120 C 128.554 188.120,128.850 188.365,129.085 188.665 C 129.321 188.965,129.612 189.210,129.732 189.210 C 129.852 189.210,130.443 189.749,131.046 190.408 C 131.648 191.067,132.218 191.559,132.313 191.501 C 132.407 191.442,132.618 191.565,132.782 191.774 C 133.056 192.124,133.046 192.128,132.643 191.832 C 132.314 191.591,132.336 191.656,132.729 192.098 C 133.016 192.420,133.350 192.623,133.471 192.548 C 133.592 192.473,133.627 192.516,133.549 192.642 C 133.471 192.769,133.946 193.365,134.605 193.968 C 135.264 194.570,135.804 195.166,135.804 195.292 C 135.804 195.418,136.048 195.681,136.347 195.877 C 136.646 196.073,136.838 196.317,136.774 196.420 C 136.711 196.523,136.859 196.732,137.103 196.885 C 137.348 197.037,137.548 197.280,137.548 197.424 C 137.548 197.568,137.743 197.823,137.982 197.991 C 138.221 198.158,138.354 198.358,138.278 198.434 C 138.202 198.510,138.300 198.635,138.497 198.710 C 138.694 198.786,138.856 198.970,138.856 199.120 C 138.856 199.269,139.091 199.645,139.378 199.955 C 139.665 200.265,139.847 200.571,139.782 200.635 C 139.718 200.700,139.826 200.814,140.022 200.890 C 140.218 200.965,140.334 201.100,140.279 201.189 C 140.224 201.278,140.373 201.560,140.612 201.816 C 140.850 202.071,141.018 202.328,140.985 202.387 C 140.953 202.445,141.088 202.682,141.286 202.912 C 141.483 203.143,141.711 203.539,141.791 203.791 C 141.871 204.044,142.034 204.251,142.153 204.251 C 142.272 204.251,142.308 204.349,142.234 204.469 C 142.160 204.589,142.209 204.687,142.343 204.687 C 142.477 204.687,142.526 204.785,142.452 204.905 C 142.378 205.025,142.421 205.123,142.548 205.123 C 142.675 205.123,142.779 205.244,142.779 205.392 C 142.779 205.735,143.924 208.041,144.143 208.139 C 144.234 208.179,144.252 208.301,144.185 208.411 C 144.117 208.521,144.165 208.610,144.292 208.610 C 144.419 208.610,144.507 208.684,144.487 208.774 C 144.414 209.111,144.796 210.136,144.996 210.136 C 145.110 210.136,145.142 210.234,145.068 210.354 C 144.994 210.474,145.043 210.572,145.177 210.572 C 145.311 210.572,145.375 210.647,145.318 210.738 C 145.262 210.829,145.369 211.246,145.556 211.664 C 145.743 212.083,145.933 212.621,145.979 212.861 C 146.024 213.101,146.151 213.328,146.261 213.366 C 146.371 213.403,146.406 213.575,146.340 213.747 C 146.274 213.919,146.335 214.060,146.475 214.060 C 146.614 214.060,146.672 214.151,146.603 214.263 C 146.534 214.374,146.579 214.528,146.703 214.605 C 146.827 214.681,146.876 214.829,146.812 214.932 C 146.748 215.035,146.797 215.182,146.921 215.259 C 147.045 215.335,147.094 215.483,147.030 215.586 C 146.966 215.689,147.009 215.833,147.126 215.905 C 147.242 215.977,147.283 216.180,147.215 216.356 C 147.148 216.532,147.207 216.676,147.346 216.676 C 147.486 216.676,147.545 216.766,147.477 216.875 C 147.409 216.985,147.466 217.353,147.603 217.693 C 147.739 218.033,147.885 218.568,147.926 218.883 C 147.968 219.198,148.115 219.738,148.253 220.082 C 148.392 220.427,148.542 221.003,148.586 221.362 C 148.631 221.722,148.729 222.163,148.804 222.343 C 148.879 222.523,148.972 222.916,149.011 223.215 C 149.050 223.515,149.149 224.005,149.232 224.305 C 149.314 224.605,149.415 225.046,149.456 225.286 C 149.497 225.526,149.576 225.992,149.632 226.322 C 150.031 228.660,150.183 229.806,150.189 230.518 C 150.191 230.877,150.290 231.319,150.407 231.499 C 150.547 231.714,150.621 228.429,150.623 221.853 C 150.627 211.741,150.716 210.692,151.373 213.025 C 151.550 213.654,151.943 215.040,152.246 216.105 C 152.549 217.170,152.744 218.126,152.680 218.230 C 152.616 218.334,152.667 218.420,152.794 218.420 C 152.921 218.420,153.025 218.542,153.025 218.692 C 153.025 218.842,154.102 222.779,155.418 227.441 C 156.733 232.103,157.762 235.993,157.705 236.087 C 157.647 236.180,157.677 236.290,157.771 236.330 C 157.946 236.405,161.092 247.405,161.161 248.183 C 161.182 248.418,161.252 248.659,161.317 248.719 C 161.463 248.853,162.644 253.101,162.691 253.658 C 162.710 253.879,162.778 254.109,162.843 254.169 C 162.992 254.307,166.123 265.481,166.175 266.057 C 166.195 266.293,166.266 266.534,166.331 266.594 C 166.469 266.721,167.698 271.108,167.734 271.605 C 167.748 271.790,167.821 272.042,167.896 272.164 C 168.176 272.617,171.312 284.111,171.204 284.287 C 171.142 284.387,171.195 284.469,171.322 284.469 C 171.449 284.469,171.553 284.591,171.554 284.741 C 171.554 284.891,172.630 288.828,173.946 293.490 C 175.262 298.152,176.291 302.042,176.233 302.136 C 176.175 302.230,176.205 302.339,176.299 302.379 C 176.491 302.461,179.710 313.789,179.711 314.387 C 179.712 314.597,179.777 314.768,179.856 314.768 C 179.935 314.768,180.059 315.066,180.132 315.429 C 180.205 315.793,180.420 316.627,180.611 317.283 L 180.958 318.476 202.685 318.421 L 224.412 318.365 224.842 316.839 C 225.079 316.000,225.325 315.264,225.388 315.204 C 225.452 315.144,225.521 314.903,225.542 314.668 C 225.593 314.091,228.725 302.917,228.874 302.779 C 228.939 302.719,229.007 302.489,229.026 302.268 C 229.072 301.711,230.254 297.464,230.399 297.330 C 230.464 297.270,230.535 297.028,230.556 296.793 C 230.625 296.015,233.771 285.015,233.946 284.941 C 234.040 284.900,234.071 284.793,234.015 284.702 C 233.958 284.610,234.987 280.720,236.301 276.055 C 237.615 271.391,238.691 267.452,238.691 267.302 C 238.692 267.153,238.796 267.030,238.923 267.030 C 239.050 267.030,239.103 266.948,239.042 266.848 C 238.980 266.749,239.616 264.223,240.455 261.235 C 241.294 258.248,242.389 254.332,242.888 252.534 C 243.387 250.736,243.849 249.215,243.914 249.155 C 243.979 249.095,244.050 248.854,244.071 248.619 C 244.122 248.042,247.254 236.868,247.403 236.730 C 247.467 236.670,247.536 236.440,247.554 236.219 C 247.601 235.662,248.783 231.415,248.928 231.281 C 248.993 231.221,249.063 230.979,249.084 230.744 C 249.150 230.005,252.295 218.968,252.461 218.896 C 252.548 218.858,252.582 218.711,252.537 218.569 C 252.410 218.169,254.250 211.989,254.496 211.989 C 254.640 211.989,254.732 229.919,254.769 265.232 C 254.816 311.008,254.867 318.474,255.133 318.474 C 255.303 318.474,257.721 314.967,260.506 310.681 C 263.291 306.395,271.556 293.668,278.871 282.398 C 286.186 271.128,292.254 261.874,292.354 261.834 C 292.455 261.794,292.481 261.671,292.414 261.562 C 292.346 261.452,292.370 261.362,292.467 261.362 C 292.711 261.362,292.474 223.619,292.228 223.236 C 292.092 223.025,292.109 222.978,292.282 223.085 C 292.472 223.203,292.534 216.771,292.534 196.965 L 292.534 170.688 298.474 170.628 C 301.741 170.595,294.065 170.568,281.417 170.568 C 268.768 170.568,252.072 170.595,244.315 170.626 M353.276 170.627 C 353.185 170.775,369.113 170.773,390.300 170.624 C 394.736 170.592,388.243 170.543,375.871 170.515 C 363.500 170.487,353.332 170.537,353.276 170.627 M71.553 170.837 C 71.883 170.887,72.422 170.887,72.752 170.837 C 73.082 170.787,72.812 170.747,72.153 170.747 C 71.493 170.747,71.223 170.787,71.553 170.837 M292.316 196.723 C 292.316 220.106,292.282 222.752,291.980 222.637 C 291.795 222.566,291.693 222.458,291.753 222.398 C 291.875 222.275,290.590 220.314,290.312 220.200 C 290.216 220.160,290.136 219.988,290.136 219.818 C 290.136 219.649,290.032 219.510,289.905 219.510 C 289.778 219.510,289.736 219.411,289.810 219.290 C 289.885 219.169,289.793 219.012,289.606 218.940 C 289.420 218.869,289.322 218.721,289.388 218.613 C 289.455 218.505,289.357 218.358,289.170 218.286 C 288.984 218.215,288.881 218.074,288.943 217.974 C 289.005 217.874,288.913 217.713,288.739 217.616 C 288.566 217.518,288.407 217.341,288.388 217.221 C 288.328 216.848,287.653 215.804,287.473 215.804 C 287.379 215.804,287.302 215.657,287.302 215.477 C 287.302 215.297,287.199 215.150,287.072 215.150 C 286.945 215.150,286.902 215.051,286.976 214.930 C 287.051 214.810,286.959 214.652,286.773 214.581 C 286.586 214.509,286.484 214.368,286.545 214.268 C 286.607 214.169,286.500 213.998,286.307 213.890 C 286.113 213.782,285.955 213.605,285.955 213.495 C 285.955 213.189,285.268 212.098,285.076 212.098 C 284.982 212.098,284.905 211.951,284.905 211.771 C 284.905 211.591,284.807 211.444,284.687 211.444 C 284.567 211.444,284.469 211.297,284.469 211.117 C 284.469 210.937,284.365 210.790,284.238 210.790 C 284.111 210.790,284.064 210.698,284.133 210.586 C 284.203 210.473,284.086 210.280,283.874 210.156 C 283.661 210.033,283.566 209.929,283.662 209.925 C 283.857 209.917,282.522 207.888,282.247 207.775 C 282.150 207.735,282.071 207.563,282.071 207.393 C 282.071 207.223,281.967 207.084,281.840 207.084 C 281.713 207.084,281.670 206.986,281.745 206.865 C 281.819 206.744,281.728 206.587,281.541 206.515 C 281.354 206.443,281.256 206.296,281.323 206.188 C 281.390 206.080,281.292 205.933,281.105 205.861 C 280.918 205.790,280.816 205.649,280.878 205.549 C 280.940 205.449,280.832 205.279,280.639 205.171 C 280.446 205.063,280.301 204.907,280.317 204.825 C 280.363 204.583,279.596 203.379,279.395 203.379 C 279.294 203.379,279.272 203.280,279.347 203.159 C 279.422 203.038,279.330 202.881,279.143 202.809 C 278.956 202.738,278.858 202.591,278.925 202.482 C 278.992 202.374,278.894 202.227,278.707 202.155 C 278.520 202.084,278.422 201.937,278.489 201.828 C 278.556 201.720,278.458 201.573,278.271 201.502 C 278.084 201.430,277.982 201.289,278.044 201.189 C 278.106 201.090,277.983 200.910,277.770 200.792 C 277.558 200.673,277.413 200.517,277.448 200.446 C 277.542 200.254,276.775 199.019,276.561 199.019 C 276.460 199.019,276.439 198.920,276.513 198.800 C 276.588 198.679,276.496 198.521,276.309 198.450 C 276.123 198.378,276.025 198.231,276.091 198.123 C 276.158 198.015,276.060 197.867,275.873 197.796 C 275.687 197.724,275.584 197.584,275.646 197.484 C 275.708 197.384,275.600 197.214,275.407 197.106 C 275.214 196.997,275.069 196.842,275.085 196.760 C 275.130 196.527,274.368 195.313,274.176 195.313 C 274.082 195.313,274.005 195.166,274.005 194.986 C 274.005 194.807,273.902 194.659,273.775 194.659 C 273.648 194.659,273.605 194.561,273.679 194.440 C 273.754 194.319,273.662 194.162,273.476 194.090 C 273.289 194.018,273.187 193.878,273.248 193.778 C 273.310 193.678,273.187 193.495,272.975 193.372 C 272.762 193.248,272.667 193.144,272.763 193.140 C 272.958 193.133,271.623 191.103,271.348 190.990 C 271.251 190.950,271.172 190.778,271.172 190.609 C 271.172 190.439,271.068 190.300,270.941 190.300 C 270.814 190.300,270.771 190.201,270.846 190.080 C 270.920 189.959,270.829 189.802,270.642 189.730 C 270.455 189.659,270.357 189.512,270.424 189.403 C 270.491 189.295,270.393 189.148,270.206 189.076 C 270.019 189.005,269.917 188.864,269.979 188.764 C 270.040 188.664,269.949 188.503,269.775 188.406 C 269.601 188.308,269.456 188.153,269.452 188.060 C 269.441 187.754,268.684 186.594,268.496 186.594 C 268.395 186.594,268.373 186.495,268.448 186.374 C 268.522 186.254,268.431 186.096,268.244 186.025 C 268.057 185.953,267.959 185.806,268.026 185.698 C 268.093 185.590,267.995 185.442,267.808 185.371 C 267.621 185.299,267.519 185.159,267.581 185.059 C 267.643 184.959,267.535 184.789,267.342 184.680 C 267.149 184.572,266.991 184.395,266.991 184.286 C 266.990 183.979,266.303 182.888,266.111 182.888 C 266.017 182.888,265.940 182.741,265.940 182.561 C 265.940 182.381,265.842 182.234,265.722 182.234 C 265.602 182.234,265.504 182.087,265.504 181.907 C 265.504 181.728,265.406 181.580,265.286 181.580 C 265.166 181.580,265.068 181.433,265.068 181.253 C 265.068 181.074,264.954 180.926,264.814 180.926 C 264.674 180.926,264.621 180.865,264.696 180.790 C 264.837 180.648,263.595 178.694,263.282 178.565 C 263.186 178.525,263.106 178.353,263.106 178.183 C 263.106 178.014,263.002 177.875,262.875 177.875 C 262.748 177.875,262.706 177.776,262.780 177.655 C 262.855 177.534,262.763 177.377,262.576 177.305 C 262.390 177.234,262.287 177.093,262.349 176.993 C 262.411 176.893,262.288 176.710,262.075 176.587 C 261.863 176.463,261.768 176.359,261.863 176.355 C 262.059 176.348,260.724 174.319,260.449 174.205 C 260.352 174.165,260.272 173.994,260.272 173.824 C 260.272 173.654,260.169 173.515,260.042 173.515 C 259.915 173.515,259.872 173.416,259.946 173.295 C 260.021 173.175,259.929 173.017,259.743 172.946 C 259.556 172.874,259.458 172.727,259.525 172.619 C 259.591 172.510,259.493 172.363,259.307 172.292 C 259.120 172.220,259.018 172.080,259.079 171.980 C 259.141 171.880,259.018 171.697,258.806 171.573 C 258.593 171.450,258.505 171.345,258.610 171.342 C 258.714 171.338,258.678 171.188,258.529 171.008 C 258.288 170.718,260.174 170.681,275.287 170.681 L 292.316 170.681 292.316 196.723 M75.588 171.053 C 75.860 171.105,76.252 171.104,76.460 171.049 C 76.669 170.994,76.447 170.952,75.967 170.954 C 75.488 170.957,75.317 171.001,75.588 171.053 M69.482 200.917 C 69.752 200.969,70.193 200.969,70.463 200.917 C 70.733 200.865,70.512 200.822,69.973 200.822 C 69.433 200.822,69.213 200.865,69.482 200.917 M86.994 204.986 C 87.218 205.187,88.501 205.776,88.501 205.679 C 88.501 205.553,87.293 204.905,87.059 204.905 C 86.973 204.905,86.944 204.941,86.994 204.986 M93.886 209.570 C 94.102 209.859,94.474 210.214,94.714 210.360 C 94.954 210.506,94.812 210.270,94.399 209.836 C 93.532 208.925,93.323 208.817,93.886 209.570 M96.349 211.989 C 96.755 212.409,97.137 212.752,97.197 212.752 C 97.257 212.752,96.973 212.409,96.567 211.989 C 96.160 211.569,95.778 211.226,95.718 211.226 C 95.658 211.226,95.942 211.569,96.349 211.989 M106.217 239.346 C 106.217 239.886,106.260 240.106,106.312 239.837 C 106.364 239.567,106.364 239.125,106.312 238.856 C 106.260 238.586,106.217 238.807,106.217 239.346 M106.217 249.373 C 106.217 249.913,106.260 250.134,106.312 249.864 C 106.364 249.594,106.364 249.153,106.312 248.883 C 106.260 248.613,106.217 248.834,106.217 249.373 M98.747 274.005 C 98.490 274.365,98.330 274.659,98.390 274.659 C 98.450 274.659,98.708 274.365,98.965 274.005 C 99.221 273.646,99.381 273.351,99.321 273.351 C 99.261 273.351,99.003 273.646,98.747 274.005 M96.662 276.676 L 96.022 277.384 96.730 276.744 C 97.120 276.392,97.439 276.073,97.439 276.036 C 97.439 275.867,97.259 276.015,96.662 276.676 M70.463 288.107 C 70.673 288.161,71.016 288.161,71.226 288.107 C 71.436 288.052,71.264 288.007,70.845 288.007 C 70.425 288.007,70.253 288.052,70.463 288.107 M130.450 299.128 L 129.809 299.837 130.518 299.196 C 130.907 298.844,131.226 298.525,131.226 298.488 C 131.226 298.319,131.046 298.468,130.450 299.128 M76.460 317.974 C 76.731 318.026,77.124 318.024,77.332 317.970 C 77.541 317.915,77.319 317.873,76.839 317.875 C 76.360 317.878,76.189 317.922,76.460 317.974 M72.864 318.195 C 73.195 318.245,73.686 318.243,73.954 318.192 C 74.222 318.140,73.951 318.099,73.351 318.100 C 72.752 318.102,72.533 318.144,72.864 318.195 M17.166 318.420 C 26.668 318.451,42.215 318.451,51.717 318.420 C 61.218 318.388,53.444 318.362,34.441 318.362 C 15.439 318.362,7.665 318.388,17.166 318.420 M251.595 337.779 L 250.255 338.992 247.852 338.924 C 246.530 338.886,245.449 338.929,245.449 339.019 C 245.449 339.109,246.553 339.178,247.902 339.172 L 250.354 339.162 251.766 337.864 C 252.543 337.151,253.124 336.567,253.057 336.567 C 252.990 336.567,252.332 337.112,251.595 337.779 M28.407 341.308 C 31.023 341.343,35.241 341.342,37.780 341.308 C 40.320 341.273,38.180 341.244,33.025 341.244 C 27.869 341.244,25.791 341.273,28.407 341.308 M53.839 341.305 L 57.107 341.374 57.167 350.251 L 57.228 359.128 57.224 350.191 L 57.221 341.253 53.896 341.245 L 50.572 341.236 53.839 341.305 M69.591 341.306 C 70.520 341.347,72.041 341.347,72.970 341.306 C 73.899 341.266,73.139 341.232,71.281 341.232 C 69.422 341.232,68.662 341.266,69.591 341.306 M86.147 341.307 C 87.190 341.346,88.956 341.347,90.071 341.307 C 91.186 341.267,90.332 341.235,88.174 341.234 C 86.016 341.234,85.104 341.267,86.147 341.307 M104.905 341.306 C 105.834 341.347,107.354 341.347,108.283 341.306 C 109.213 341.266,108.452 341.232,106.594 341.232 C 104.736 341.232,103.975 341.266,104.905 341.306 M122.561 341.307 C 124.090 341.345,126.591 341.345,128.120 341.307 C 129.649 341.270,128.398 341.239,125.341 341.239 C 122.283 341.239,121.033 341.270,122.561 341.307 M163.978 341.306 C 164.907 341.347,166.428 341.347,167.357 341.306 C 168.286 341.266,167.526 341.232,165.668 341.232 C 163.809 341.232,163.049 341.266,163.978 341.306 M221.417 341.305 L 224.959 341.373 224.959 355.422 L 224.959 369.471 221.635 369.540 L 218.311 369.608 221.689 369.600 L 225.068 369.591 225.068 355.422 L 225.068 341.253 221.471 341.245 L 217.875 341.236 221.417 341.305 M274.921 341.307 C 275.964 341.346,277.730 341.347,278.845 341.307 C 279.960 341.267,279.106 341.235,276.948 341.234 C 274.790 341.234,273.878 341.267,274.921 341.307 M295.368 341.305 L 298.638 341.374 298.638 355.423 L 298.638 369.472 294.768 369.537 L 290.899 369.602 294.879 369.651 L 298.859 369.700 298.803 355.477 L 298.747 341.253 295.422 341.245 L 292.098 341.236 295.368 341.305 M332.044 341.306 C 332.973 341.347,334.493 341.347,335.422 341.306 C 336.351 341.266,335.591 341.232,333.733 341.232 C 331.875 341.232,331.114 341.266,332.044 341.306 M208.615 347.139 L 206.331 349.537 208.715 347.202 C 210.025 345.918,211.053 344.839,210.998 344.804 C 210.944 344.769,209.871 345.820,208.615 347.139 M376.672 346.975 L 374.387 349.319 376.730 347.034 C 378.019 345.777,379.074 344.723,379.074 344.691 C 379.074 344.533,378.794 344.799,376.672 346.975 M248.447 346.748 C 248.717 346.800,249.158 346.800,249.428 346.748 C 249.698 346.696,249.477 346.653,248.937 346.653 C 248.398 346.653,248.177 346.696,248.447 346.748 M30.395 347.315 C 30.335 347.471,30.317 348.820,30.355 350.312 L 30.423 353.025 30.471 350.140 L 30.518 347.255 36.458 347.193 L 42.398 347.132 36.451 347.081 C 31.723 347.040,30.482 347.088,30.395 347.315 M103.417 351.717 C 103.417 354.354,103.449 355.403,103.487 354.048 C 103.525 352.692,103.525 350.534,103.487 349.252 C 103.448 347.970,103.417 349.079,103.417 351.717 M126.530 347.303 C 126.472 347.454,126.452 351.206,126.485 355.641 L 126.545 363.706 126.597 355.484 L 126.649 347.263 128.883 347.193 L 131.117 347.122 128.876 347.076 C 127.245 347.042,126.606 347.104,126.530 347.303 M292.191 352.698 C 292.191 355.395,292.223 356.499,292.261 355.150 C 292.299 353.801,292.299 351.594,292.261 350.245 C 292.223 348.896,292.191 350.000,292.191 352.698 M257.068 355.313 C 257.068 355.973,257.109 356.243,257.159 355.913 C 257.209 355.583,257.209 355.044,257.159 354.714 C 257.109 354.384,257.068 354.654,257.068 355.313 M90.774 359.237 C 90.774 361.935,90.806 363.038,90.844 361.689 C 90.882 360.341,90.882 358.134,90.844 356.785 C 90.806 355.436,90.774 356.540,90.774 359.237 M139.133 355.313 C 139.133 355.853,139.175 356.074,139.227 355.804 C 139.279 355.534,139.279 355.093,139.227 354.823 C 139.175 354.553,139.133 354.774,139.133 355.313 M233.520 355.313 C 233.520 355.853,233.562 356.074,233.614 355.804 C 233.666 355.534,233.666 355.093,233.614 354.823 C 233.562 354.553,233.520 354.774,233.520 355.313 M352.978 355.422 C 352.980 356.022,353.022 356.241,353.072 355.910 C 353.122 355.578,353.121 355.088,353.069 354.820 C 353.017 354.552,352.976 354.823,352.978 355.422 M279.548 360.436 C 279.548 363.074,279.580 364.123,279.618 362.767 C 279.656 361.412,279.656 359.254,279.618 357.972 C 279.579 356.689,279.548 357.798,279.548 360.436 M30.350 363.973 L 30.300 369.471 26.866 369.537 L 23.433 369.603 26.873 369.652 C 29.488 369.689,30.339 369.634,30.420 369.424 C 30.478 369.272,30.498 366.746,30.463 363.811 L 30.401 358.474 30.350 363.973 M254.482 361.907 L 253.842 362.616 254.550 361.976 C 255.211 361.379,255.359 361.199,255.191 361.199 C 255.153 361.199,254.834 361.518,254.482 361.907 M208.658 363.273 C 209.103 363.739,209.503 364.076,209.546 364.022 C 209.589 363.968,209.225 363.587,208.736 363.174 L 207.847 362.425 208.658 363.273 M377.268 363.819 C 377.654 364.224,378.007 364.511,378.052 364.457 C 378.097 364.404,377.781 364.073,377.350 363.722 L 376.567 363.083 377.268 363.819 M260.153 366.049 L 259.292 366.975 260.218 366.114 C 261.080 365.312,261.245 365.123,261.080 365.123 C 261.044 365.123,260.627 365.540,260.153 366.049 M154.114 369.482 L 150.300 369.607 154.047 369.654 C 156.362 369.682,157.846 369.617,157.929 369.482 C 158.003 369.362,158.034 369.285,157.997 369.311 C 157.959 369.337,156.213 369.414,154.114 369.482 M173.004 369.537 C 173.059 369.627,174.816 369.700,176.907 369.700 C 178.998 369.700,180.708 369.627,180.708 369.537 C 180.708 369.447,178.952 369.373,176.806 369.373 C 174.659 369.373,172.948 369.447,173.004 369.537 M341.069 369.537 C 341.125 369.627,342.881 369.700,344.972 369.700 C 347.063 369.700,348.774 369.627,348.774 369.537 C 348.774 369.447,347.018 369.373,344.871 369.373 C 342.724 369.373,341.014 369.447,341.069 369.537 M85.841 369.645 C 86.836 369.685,88.406 369.685,89.329 369.644 C 90.253 369.603,89.439 369.570,87.520 369.571 C 85.602 369.571,84.847 369.604,85.841 369.645 M104.142 369.645 C 105.251 369.684,107.065 369.684,108.174 369.645 C 109.283 369.605,108.376 369.573,106.158 369.573 C 103.940 369.573,103.033 369.605,104.142 369.645 M122.779 369.645 C 124.428 369.682,127.125 369.682,128.774 369.645 C 130.422 369.608,129.074 369.578,125.777 369.578 C 122.480 369.578,121.131 369.608,122.779 369.645 M274.615 369.645 C 275.610 369.685,277.180 369.685,278.103 369.644 C 279.026 369.603,278.213 369.570,276.294 369.571 C 274.376 369.571,273.620 369.604,274.615 369.645 M320.261 369.644 C 321.304 369.684,323.070 369.684,324.185 369.645 C 325.300 369.605,324.447 369.573,322.289 369.572 C 320.131 369.572,319.218 369.605,320.261 369.644 " stroke="none" fill="#d2d2d2" fill-rule="evenodd"></path><path id="path2" d="M127.802 9.535 C 128.616 9.577,129.891 9.577,130.636 9.534 C 131.380 9.492,130.714 9.458,129.155 9.458 C 127.597 9.458,126.988 9.493,127.802 9.535 M269.709 9.535 C 270.524 9.577,271.799 9.577,272.543 9.534 C 273.287 9.492,272.621 9.458,271.063 9.458 C 269.504 9.458,268.895 9.493,269.709 9.535 M136.624 9.745 C 136.895 9.798,137.287 9.796,137.496 9.741 C 137.704 9.686,137.482 9.644,137.003 9.646 C 136.523 9.649,136.353 9.693,136.624 9.745 M262.725 9.742 C 262.935 9.796,263.278 9.796,263.488 9.742 C 263.698 9.687,263.526 9.642,263.106 9.642 C 262.687 9.642,262.515 9.687,262.725 9.742 M240.688 16.126 C 239.950 16.603,239.346 17.042,239.346 17.102 C 239.346 17.200,241.891 15.620,242.148 15.363 C 242.457 15.054,241.878 15.357,240.688 16.126 M161.417 17.577 C 161.537 17.683,161.978 18.063,162.397 18.421 L 163.159 19.074 162.615 18.454 C 162.316 18.113,161.875 17.734,161.635 17.610 C 161.395 17.486,161.297 17.472,161.417 17.577 M237.275 18.657 L 236.621 19.219 237.330 18.750 C 237.719 18.492,238.038 18.239,238.038 18.187 C 238.038 18.024,237.946 18.080,237.275 18.657 M163.924 19.728 C 164.330 20.147,164.712 20.490,164.772 20.490 C 164.832 20.490,164.548 20.147,164.142 19.728 C 163.735 19.308,163.353 18.965,163.293 18.965 C 163.233 18.965,163.517 19.308,163.924 19.728 M222.997 19.497 C 222.997 19.789,223.078 20.078,223.176 20.139 C 223.274 20.200,223.312 19.960,223.260 19.607 C 223.146 18.828,222.997 18.766,222.997 19.497 M176.840 21.253 C 176.842 21.733,176.887 21.903,176.939 21.632 C 176.991 21.361,176.989 20.969,176.935 20.760 C 176.880 20.552,176.837 20.774,176.840 21.253 M223.275 21.362 C 223.275 21.902,223.317 22.123,223.369 21.853 C 223.421 21.583,223.421 21.142,223.369 20.872 C 223.317 20.602,223.275 20.823,223.275 21.362 M234.550 21.417 C 234.229 21.855,234.176 22.008,234.412 21.816 C 234.769 21.526,235.310 20.708,235.144 20.708 C 235.102 20.708,234.835 21.027,234.550 21.417 M166.766 22.997 C 166.767 23.117,166.968 23.460,167.213 23.760 C 167.509 24.122,167.583 24.159,167.433 23.869 C 167.066 23.158,166.764 22.764,166.766 22.997 M232.798 23.773 C 232.537 24.139,232.359 24.476,232.404 24.520 C 232.448 24.565,232.705 24.265,232.975 23.854 C 233.582 22.927,233.445 22.864,232.798 23.773 M223.278 25.177 C 223.279 25.777,223.322 25.996,223.372 25.665 C 223.422 25.333,223.420 24.843,223.369 24.575 C 223.317 24.307,223.276 24.578,223.278 25.177 M176.847 25.613 C 176.849 26.213,176.891 26.432,176.941 26.101 C 176.991 25.769,176.990 25.279,176.938 25.011 C 176.886 24.743,176.845 25.014,176.847 25.613 M273.886 33.351 C 273.886 37.608,273.915 39.349,273.951 37.221 C 273.986 35.093,273.986 31.610,273.951 29.482 C 273.915 27.354,273.886 29.095,273.886 33.351 M222.918 27.605 C 222.841 28.167,222.820 28.669,222.871 28.720 C 222.923 28.772,223.033 28.359,223.116 27.803 C 223.200 27.247,223.221 26.745,223.163 26.687 C 223.105 26.629,222.995 27.042,222.918 27.605 M177.469 29.210 C 177.469 29.390,177.554 29.733,177.657 29.973 C 177.775 30.248,177.844 30.288,177.844 30.082 C 177.844 29.902,177.760 29.559,177.657 29.319 C 177.539 29.044,177.469 29.004,177.469 29.210 M222.363 29.884 C 222.216 30.376,222.135 30.818,222.184 30.867 C 222.233 30.916,222.394 30.554,222.541 30.062 C 222.689 29.570,222.769 29.127,222.720 29.078 C 222.671 29.029,222.511 29.392,222.363 29.884 M177.891 30.736 C 177.890 31.050,178.505 32.298,178.521 32.014 C 178.525 31.938,178.385 31.546,178.210 31.142 C 178.035 30.739,177.891 30.556,177.891 30.736 M178.544 32.371 C 178.544 32.490,178.684 32.834,178.856 33.134 C 179.027 33.433,179.167 33.580,179.167 33.460 C 179.167 33.341,179.027 32.997,178.856 32.698 C 178.684 32.398,178.544 32.251,178.544 32.371 M220.304 34.774 C 220.000 35.316,219.846 35.702,219.961 35.631 C 220.190 35.489,221.102 33.787,220.949 33.787 C 220.897 33.787,220.607 34.231,220.304 34.774 M179.622 34.659 C 180.027 35.446,181.544 37.663,181.774 37.805 C 181.951 37.914,179.730 34.482,179.457 34.223 C 179.393 34.163,179.468 34.360,179.622 34.659 M126.295 39.019 C 126.295 40.398,126.330 40.962,126.374 40.272 C 126.417 39.583,126.417 38.455,126.374 37.766 C 126.330 37.076,126.295 37.640,126.295 39.019 M183.433 39.673 C 184.266 40.512,184.996 41.199,185.056 41.199 C 185.116 41.199,184.484 40.512,183.651 39.673 C 182.818 38.834,182.088 38.147,182.028 38.147 C 181.968 38.147,182.600 38.834,183.433 39.673 M216.450 39.837 L 215.259 41.090 216.512 39.898 C 217.677 38.792,217.866 38.583,217.704 38.583 C 217.670 38.583,217.106 39.147,216.450 39.837 M273.632 43.270 C 273.633 43.869,273.676 44.089,273.726 43.757 C 273.776 43.426,273.775 42.935,273.723 42.667 C 273.671 42.399,273.630 42.670,273.632 43.270 M126.493 43.488 C 126.495 44.087,126.537 44.307,126.587 43.975 C 126.637 43.644,126.636 43.153,126.584 42.885 C 126.532 42.617,126.491 42.888,126.493 43.488 M212.129 43.165 C 210.837 44.014,210.700 44.211,211.838 43.584 C 212.354 43.299,212.881 42.941,213.009 42.787 C 213.329 42.401,213.221 42.448,212.129 43.165 M172.702 45.341 C 172.702 45.880,172.745 46.101,172.797 45.831 C 172.849 45.561,172.849 45.120,172.797 44.850 C 172.745 44.580,172.702 44.801,172.702 45.341 M227.419 45.450 C 227.421 46.049,227.463 46.268,227.513 45.937 C 227.563 45.606,227.562 45.115,227.510 44.847 C 227.459 44.579,227.418 44.850,227.419 45.450 M207.847 45.239 C 207.302 45.502,207.284 45.532,207.738 45.421 C 208.356 45.270,209.050 44.916,208.719 44.921 C 208.599 44.923,208.207 45.066,207.847 45.239 M198.973 46.592 C 199.727 46.635,200.904 46.634,201.589 46.591 C 202.274 46.548,201.657 46.513,200.218 46.514 C 198.779 46.514,198.219 46.549,198.973 46.592 M94.556 48.552 C 95.069 48.598,95.854 48.598,96.300 48.551 C 96.746 48.504,96.327 48.466,95.368 48.467 C 94.409 48.468,94.043 48.506,94.556 48.552 M303.820 48.552 C 304.333 48.598,305.118 48.598,305.564 48.551 C 306.011 48.504,305.591 48.466,304.632 48.467 C 303.673 48.468,303.308 48.506,303.820 48.552 M104.650 50.435 C 104.875 50.636,106.158 51.226,106.158 51.128 C 106.158 51.003,104.950 50.354,104.716 50.354 C 104.630 50.354,104.600 50.391,104.650 50.435 M176.835 65.559 C 176.807 73.741,176.858 80.436,176.948 80.436 C 177.096 80.436,177.094 69.469,176.944 55.913 C 176.912 53.035,176.863 57.376,176.835 65.559 M223.318 66.049 C 223.318 74.501,223.346 77.959,223.379 73.733 C 223.412 69.507,223.412 62.591,223.379 58.365 C 223.346 54.139,223.318 57.597,223.318 66.049 M290.550 53.154 C 288.866 54.430,287.452 55.792,286.444 57.112 C 286.032 57.651,286.460 57.281,287.395 56.288 C 288.331 55.295,289.698 54.029,290.433 53.473 C 291.994 52.295,292.228 52.098,292.065 52.098 C 291.999 52.098,291.317 52.573,290.550 53.154 M108.556 52.602 C 108.556 52.656,108.916 52.975,109.356 53.311 C 109.796 53.646,110.088 53.810,110.003 53.674 C 109.831 53.395,108.556 52.451,108.556 52.602 M111.819 55.439 C 112.595 56.239,113.265 56.894,113.308 56.894 C 113.487 56.894,111.875 55.159,111.172 54.595 C 110.752 54.259,111.043 54.638,111.819 55.439 M284.894 59.198 C 284.517 59.746,284.243 60.228,284.285 60.270 C 284.327 60.312,284.680 59.864,285.070 59.274 C 285.965 57.922,285.816 57.858,284.894 59.198 M283.342 62.027 C 282.974 62.812,282.716 63.497,282.768 63.549 C 282.820 63.601,283.167 62.958,283.539 62.121 C 284.394 60.195,284.235 60.119,283.342 62.027 M116.577 62.333 C 116.893 63.046,117.189 63.592,117.235 63.546 C 117.337 63.444,116.254 61.035,116.107 61.035 C 116.050 61.035,116.262 61.619,116.577 62.333 M282.207 64.859 C 282.132 65.053,282.079 65.376,282.090 65.576 C 282.100 65.776,282.195 65.651,282.300 65.297 C 282.506 64.609,282.433 64.269,282.207 64.859 M118.416 68.447 C 118.416 68.866,118.461 69.038,118.515 68.828 C 118.570 68.619,118.570 68.275,118.515 68.065 C 118.461 67.856,118.416 68.027,118.416 68.447 M281.467 68.447 C 281.467 68.866,281.512 69.038,281.567 68.828 C 281.622 68.619,281.622 68.275,281.567 68.065 C 281.512 67.856,281.467 68.027,281.467 68.447 M71.994 70.409 C 71.994 70.948,72.036 71.169,72.088 70.899 C 72.140 70.629,72.140 70.188,72.088 69.918 C 72.036 69.649,71.994 69.869,71.994 70.409 M281.280 71.717 C 281.280 72.975,281.316 73.490,281.360 72.861 C 281.404 72.232,281.404 71.202,281.360 70.572 C 281.316 69.943,281.280 70.458,281.280 71.717 M327.902 70.518 C 327.905 70.997,327.949 71.168,328.002 70.897 C 328.054 70.625,328.052 70.233,327.997 70.025 C 327.943 69.816,327.900 70.038,327.902 70.518 M118.659 71.935 C 118.659 72.954,118.697 73.371,118.743 72.861 C 118.789 72.351,118.789 71.518,118.743 71.008 C 118.697 70.499,118.659 70.916,118.659 71.935 M71.994 73.243 C 71.994 73.782,72.036 74.003,72.088 73.733 C 72.140 73.463,72.140 73.022,72.088 72.752 C 72.036 72.482,71.994 72.703,71.994 73.243 M327.902 73.134 C 327.905 73.613,327.949 73.784,328.002 73.512 C 328.054 73.241,328.052 72.849,327.997 72.641 C 327.943 72.432,327.900 72.654,327.902 73.134 M118.416 75.204 C 118.416 75.624,118.461 75.796,118.515 75.586 C 118.570 75.376,118.570 75.033,118.515 74.823 C 118.461 74.613,118.416 74.785,118.416 75.204 M128.171 77.766 L 125.232 80.763 128.229 77.823 C 129.877 76.206,131.226 74.858,131.226 74.826 C 131.226 74.670,130.902 74.981,128.171 77.766 M142.452 85.886 C 148.566 92.000,153.617 97.003,153.677 97.003 C 153.737 97.003,148.784 92.000,142.670 85.886 C 136.557 79.771,131.506 74.768,131.446 74.768 C 131.386 74.768,136.339 79.771,142.452 85.886 M256.784 86.485 L 245.123 98.202 256.839 86.540 C 267.730 75.701,268.654 74.768,268.501 74.768 C 268.470 74.768,263.198 80.041,256.784 86.485 M271.499 77.602 C 273.054 79.161,274.375 80.436,274.435 80.436 C 274.495 80.436,273.272 79.161,271.717 77.602 C 270.161 76.044,268.840 74.768,268.780 74.768 C 268.720 74.768,269.944 76.044,271.499 77.602 M163.978 75.578 C 164.308 75.628,164.847 75.628,165.177 75.578 C 165.507 75.529,165.237 75.488,164.578 75.488 C 163.918 75.488,163.649 75.529,163.978 75.578 M235.259 75.573 C 235.469 75.627,235.812 75.627,236.022 75.573 C 236.232 75.518,236.060 75.473,235.640 75.473 C 235.221 75.473,235.049 75.518,235.259 75.573 M196.240 76.227 C 196.450 76.281,196.793 76.281,197.003 76.227 C 197.213 76.172,197.041 76.127,196.621 76.127 C 196.202 76.127,196.030 76.172,196.240 76.227 M200.817 76.227 C 201.027 76.281,201.371 76.281,201.580 76.227 C 201.790 76.172,201.619 76.127,201.199 76.127 C 200.779 76.127,200.608 76.172,200.817 76.227 M73.678 80.734 C 73.678 80.970,74.762 83.052,74.885 83.052 C 74.945 83.052,74.735 82.537,74.419 81.907 C 73.811 80.697,73.678 80.487,73.678 80.734 M325.383 82.292 C 325.184 82.710,325.066 83.052,325.121 83.052 C 325.270 83.052,325.931 81.717,325.832 81.617 C 325.784 81.570,325.583 81.873,325.383 82.292 M74.995 83.379 C 74.995 83.499,75.197 83.842,75.442 84.142 C 75.738 84.504,75.812 84.540,75.662 84.251 C 75.295 83.540,74.993 83.145,74.995 83.379 M324.194 84.377 C 323.804 84.967,323.529 85.450,323.585 85.450 C 323.733 85.450,325.068 83.470,324.980 83.381 C 324.938 83.339,324.584 83.788,324.194 84.377 M112.807 87.193 C 112.338 87.673,112.049 88.057,112.163 88.047 C 112.363 88.029,113.932 86.322,113.748 86.322 C 113.698 86.322,113.275 86.714,112.807 87.193 M286.991 87.214 C 287.342 87.645,287.673 87.961,287.727 87.916 C 287.781 87.870,287.494 87.518,287.089 87.132 L 286.353 86.431 286.991 87.214 M321.090 88.131 C 320.191 89.002,319.063 90.038,318.583 90.432 C 318.104 90.827,317.858 91.076,318.038 90.985 C 319.052 90.472,323.283 86.517,322.790 86.543 C 322.754 86.545,321.989 87.259,321.090 88.131 M77.837 87.354 C 78.586 88.201,79.145 88.748,79.894 89.368 C 80.252 89.664,79.861 89.199,79.025 88.332 C 77.531 86.785,76.799 86.182,77.837 87.354 M110.829 89.211 L 110.191 89.917 110.845 89.373 C 111.204 89.073,111.540 88.804,111.589 88.774 C 111.639 88.744,111.632 88.671,111.574 88.613 C 111.515 88.554,111.180 88.823,110.829 89.211 M288.404 88.665 C 288.411 88.755,288.730 89.067,289.113 89.359 L 289.809 89.890 289.169 89.196 C 288.503 88.473,288.384 88.391,288.404 88.665 M194.281 89.530 C 194.612 89.580,195.103 89.578,195.371 89.527 C 195.639 89.475,195.368 89.434,194.768 89.436 C 194.169 89.437,193.950 89.480,194.281 89.530 M202.670 89.527 C 202.940 89.579,203.381 89.579,203.651 89.527 C 203.921 89.475,203.700 89.433,203.161 89.433 C 202.621 89.433,202.401 89.475,202.670 89.527 M192.316 89.742 C 192.526 89.796,192.869 89.796,193.079 89.742 C 193.289 89.687,193.117 89.642,192.698 89.642 C 192.278 89.642,192.106 89.687,192.316 89.742 M204.741 89.742 C 204.951 89.796,205.294 89.796,205.504 89.742 C 205.714 89.687,205.542 89.642,205.123 89.642 C 204.703 89.642,204.531 89.687,204.741 89.742 M81.336 90.508 C 81.771 90.903,82.556 91.450,83.080 91.725 C 83.604 91.999,83.848 92.097,83.623 91.943 C 83.397 91.788,82.613 91.241,81.879 90.726 C 80.779 89.955,80.684 89.917,81.336 90.508 M206.013 89.890 C 206.063 89.935,206.594 90.028,207.193 90.097 C 207.928 90.182,208.106 90.163,207.738 90.038 C 207.194 89.853,205.841 89.737,206.013 89.890 M290.336 90.324 C 290.627 90.682,291.444 91.222,291.444 91.057 C 291.444 91.015,291.125 90.748,290.736 90.463 C 290.297 90.142,290.145 90.089,290.336 90.324 M316.892 91.534 C 315.996 92.109,315.872 92.311,316.662 91.909 C 317.044 91.715,317.418 91.457,317.492 91.337 C 317.667 91.054,317.615 91.071,316.892 91.534 M213.409 91.620 C 213.577 91.801,216.539 92.853,216.628 92.763 C 216.671 92.721,216.184 92.492,215.546 92.256 C 214.041 91.699,213.269 91.469,213.409 91.620 M105.722 92.643 C 105.302 92.873,105.038 93.065,105.133 93.070 C 105.364 93.082,106.594 92.443,106.594 92.310 C 106.594 92.168,106.581 92.173,105.722 92.643 M86.540 93.478 C 86.719 93.589,87.112 93.746,87.411 93.826 C 87.790 93.927,87.857 93.910,87.629 93.770 C 87.450 93.659,87.057 93.502,86.757 93.422 C 86.379 93.321,86.312 93.338,86.540 93.478 M218.420 93.630 C 218.420 93.736,219.640 94.387,219.839 94.387 C 219.912 94.387,219.917 94.298,219.850 94.190 C 219.721 93.983,218.420 93.472,218.420 93.630 M220.163 94.485 C 220.163 94.545,220.458 94.746,220.817 94.932 C 221.177 95.118,221.471 95.221,221.471 95.161 C 221.471 95.101,221.177 94.900,220.817 94.714 C 220.458 94.528,220.163 94.425,220.163 94.485 M94.768 95.200 C 95.278 95.246,96.112 95.246,96.621 95.200 C 97.131 95.155,96.714 95.117,95.695 95.117 C 94.676 95.117,94.259 95.155,94.768 95.200 M303.379 95.200 C 303.888 95.246,304.722 95.246,305.232 95.200 C 305.741 95.155,305.324 95.117,304.305 95.117 C 303.286 95.117,302.869 95.155,303.379 95.200 M66.000 95.637 C 66.513 95.683,67.298 95.682,67.744 95.635 C 68.191 95.588,67.771 95.551,66.812 95.552 C 65.853 95.552,65.488 95.591,66.000 95.637 M332.376 95.637 C 332.889 95.683,333.674 95.682,334.120 95.635 C 334.567 95.588,334.147 95.551,333.188 95.552 C 332.229 95.552,331.864 95.591,332.376 95.637 M223.215 96.197 C 223.215 96.246,223.779 96.649,224.469 97.092 C 225.158 97.534,225.454 97.668,225.126 97.389 C 224.479 96.839,223.215 96.050,223.215 96.197 M229.740 101.196 C 230.151 101.644,230.535 101.962,230.594 101.904 C 230.652 101.846,230.658 101.774,230.607 101.744 C 230.557 101.714,230.173 101.395,229.754 101.036 L 228.992 100.382 229.740 101.196 M103.425 102.507 L 102.343 103.651 103.488 102.570 C 104.117 101.975,104.632 101.460,104.632 101.425 C 104.632 101.262,104.430 101.443,103.425 102.507 M296.022 102.125 C 296.429 102.545,296.810 102.888,296.870 102.888 C 296.930 102.888,296.646 102.545,296.240 102.125 C 295.833 101.706,295.451 101.362,295.391 101.362 C 295.331 101.362,295.615 101.706,296.022 102.125 M232.916 104.414 C 233.384 104.894,233.807 105.286,233.857 105.286 C 234.041 105.286,232.472 103.578,232.272 103.561 C 232.158 103.551,232.447 103.935,232.916 104.414 M164.566 104.578 L 163.815 105.395 164.632 104.644 C 165.393 103.945,165.550 103.760,165.383 103.760 C 165.347 103.760,164.979 104.128,164.566 104.578 M99.292 115.967 C 104.086 120.763,108.058 124.687,108.118 124.687 C 108.178 124.687,104.304 120.763,99.510 115.967 C 94.715 111.172,90.743 107.248,90.683 107.248 C 90.623 107.248,94.497 111.172,99.292 115.967 M39.332 108.392 L 38.692 109.101 39.401 108.461 C 39.790 108.108,40.109 107.790,40.109 107.752 C 40.109 107.584,39.929 107.732,39.332 108.392 M108.992 118.256 C 114.806 124.071,119.611 128.828,119.671 128.828 C 119.731 128.828,115.024 124.071,109.210 118.256 C 103.396 112.441,98.590 107.684,98.530 107.684 C 98.470 107.684,103.178 112.441,108.992 118.256 M236.076 108.283 C 236.361 108.673,236.628 108.992,236.670 108.992 C 236.835 108.992,236.295 108.174,235.938 107.884 C 235.702 107.693,235.755 107.845,236.076 108.283 M290.789 118.311 L 280.218 128.937 290.845 118.366 C 300.722 108.540,301.569 107.684,301.416 107.684 C 301.386 107.684,296.604 112.466,290.789 118.311 M305.284 111.226 L 301.798 114.768 305.341 111.283 C 308.631 108.045,308.981 107.684,308.826 107.684 C 308.794 107.684,307.200 109.278,305.284 111.226 M359.891 107.752 C 359.891 107.790,360.210 108.108,360.599 108.461 L 361.308 109.101 360.668 108.392 C 360.071 107.732,359.891 107.584,359.891 107.752 M34.873 112.643 L 32.589 114.986 34.932 112.701 C 36.221 111.445,37.275 110.390,37.275 110.358 C 37.275 110.201,36.996 110.467,34.873 112.643 M365.014 112.698 C 366.208 113.896,367.234 114.877,367.294 114.877 C 367.354 114.877,366.426 113.896,365.232 112.698 C 364.037 111.499,363.011 110.518,362.951 110.518 C 362.891 110.518,363.819 111.499,365.014 112.698 M239.934 114.548 C 240.133 114.966,240.335 115.269,240.382 115.222 C 240.482 115.122,239.820 113.787,239.671 113.787 C 239.616 113.787,239.734 114.130,239.934 114.548 M296.892 119.619 L 292.207 124.360 296.948 119.675 C 301.354 115.322,301.788 114.877,301.633 114.877 C 301.602 114.877,299.468 117.011,296.892 119.619 M42.180 124.687 C 47.454 129.962,51.818 134.278,51.878 134.278 C 51.938 134.278,47.672 129.962,42.398 124.687 C 37.124 119.411,32.759 115.095,32.699 115.095 C 32.639 115.095,36.906 119.411,42.180 124.687 M358.037 124.305 L 348.883 133.515 358.093 124.361 C 366.653 115.852,367.400 115.095,367.247 115.095 C 367.216 115.095,363.072 119.240,358.037 124.305 M240.887 116.512 C 240.887 116.632,241.028 116.975,241.199 117.275 C 241.370 117.575,241.510 117.722,241.510 117.602 C 241.510 117.482,241.370 117.139,241.199 116.839 C 241.028 116.540,240.887 116.392,240.887 116.512 M243.307 123.379 C 243.318 123.945,243.661 124.875,243.669 124.360 C 243.672 124.120,243.591 123.728,243.488 123.488 C 243.373 123.221,243.303 123.178,243.307 123.379 M214.060 128.828 L 183.651 128.940 214.114 128.993 C 234.313 129.028,244.578 128.973,244.578 128.828 C 244.578 128.708,244.553 128.634,244.523 128.664 C 244.493 128.693,230.785 128.767,214.060 128.828 M106.376 134.605 C 105.847 135.144,105.462 135.586,105.522 135.586 C 105.582 135.586,106.065 135.144,106.594 134.605 C 107.123 134.065,107.508 133.624,107.448 133.624 C 107.388 133.624,106.906 134.065,106.376 134.605 M293.397 134.550 C 294.300 135.513,294.496 135.686,294.496 135.522 C 294.496 135.487,294.030 135.021,293.460 134.487 L 292.425 133.515 293.397 134.550 M345.818 136.299 L 344.741 137.438 345.827 136.458 C 346.424 135.918,346.956 135.452,347.008 135.422 C 347.060 135.392,347.056 135.321,346.999 135.264 C 346.941 135.207,346.410 135.673,345.818 136.299 M53.206 135.531 C 53.217 135.621,53.634 136.034,54.133 136.448 L 55.041 137.201 54.179 136.284 C 53.293 135.342,53.175 135.250,53.206 135.531 M55.804 137.834 C 55.804 137.871,56.123 138.190,56.512 138.542 L 57.221 139.183 56.580 138.474 C 55.984 137.814,55.804 137.665,55.804 137.834 M343.420 138.474 L 342.779 139.183 343.488 138.542 C 344.148 137.946,344.296 137.766,344.128 137.766 C 344.090 137.766,343.772 138.084,343.420 138.474 M58.791 140.404 C 59.087 140.771,61.035 142.205,61.035 142.056 C 61.035 142.003,60.471 141.536,59.782 141.019 C 59.093 140.502,58.647 140.225,58.791 140.404 M340.490 140.844 C 339.731 141.510,339.731 141.511,340.429 141.046 C 340.815 140.789,341.189 140.486,341.260 140.371 C 341.470 140.031,341.296 140.138,340.490 140.844 M335.422 144.212 C 334.607 144.654,334.657 144.838,335.477 144.414 C 335.837 144.228,336.131 144.029,336.131 143.973 C 336.131 143.832,336.107 143.840,335.422 144.212 M66.657 170.625 C 67.411 170.668,68.588 170.667,69.273 170.624 C 69.958 170.581,69.341 170.546,67.902 170.546 C 66.463 170.547,65.903 170.582,66.657 170.625 M112.698 174.592 C 112.698 176.863,112.771 178.766,112.861 178.822 C 112.951 178.878,112.996 177.069,112.961 174.803 L 112.897 170.683 143.697 170.627 L 174.496 170.571 143.597 170.517 L 112.698 170.463 112.698 174.592 M237.237 170.627 C 241.172 170.660,247.548 170.660,251.405 170.627 C 255.263 170.593,252.044 170.566,244.251 170.566 C 236.458 170.566,233.301 170.593,237.237 170.627 M73.624 170.835 C 73.894 170.887,74.335 170.887,74.605 170.835 C 74.875 170.783,74.654 170.741,74.114 170.741 C 73.575 170.741,73.354 170.783,73.624 170.835 M77.114 171.053 C 77.385 171.105,77.778 171.104,77.986 171.049 C 78.195 170.994,77.973 170.952,77.493 170.954 C 77.014 170.957,76.843 171.001,77.114 171.053 M79.837 171.267 C 80.046 171.322,80.390 171.322,80.599 171.267 C 80.809 171.213,80.638 171.168,80.218 171.168 C 79.798 171.168,79.627 171.213,79.837 171.267 M182.483 199.237 C 182.483 199.417,182.567 199.760,182.670 200.000 C 182.788 200.275,182.858 200.315,182.858 200.109 C 182.858 199.929,182.773 199.586,182.670 199.346 C 182.552 199.071,182.483 199.031,182.483 199.237 M42.343 244.523 L 42.397 288.283 42.452 244.634 L 42.508 200.984 55.859 200.926 L 69.210 200.869 55.749 200.816 L 42.289 200.763 42.343 244.523 M254.269 212.113 C 254.161 212.287,254.191 212.328,254.353 212.228 C 254.543 212.111,254.618 225.140,254.659 265.328 L 254.713 318.583 254.768 265.406 C 254.820 215.826,254.778 211.290,254.269 212.113 M151.093 212.534 C 151.093 212.714,151.178 213.057,151.281 213.297 C 151.399 213.572,151.468 213.612,151.468 213.406 C 151.468 213.226,151.384 212.883,151.281 212.643 C 151.163 212.368,151.093 212.328,151.093 212.534 M253.858 213.313 C 253.777 213.632,253.754 213.935,253.805 213.987 C 253.857 214.038,253.964 213.819,254.044 213.499 C 254.125 213.180,254.148 212.877,254.097 212.825 C 254.045 212.774,253.938 212.993,253.858 213.313 M156.107 230.409 C 156.107 230.589,156.191 230.932,156.294 231.172 C 156.412 231.446,156.482 231.487,156.482 231.281 C 156.482 231.101,156.397 230.757,156.294 230.518 C 156.176 230.243,156.107 230.203,156.107 230.409 M150.728 244.360 C 150.728 250.414,150.756 252.891,150.790 249.864 C 150.824 246.837,150.824 241.883,150.790 238.856 C 150.756 235.828,150.728 238.305,150.728 244.360 M193.382 237.166 C 193.382 237.346,193.466 237.689,193.569 237.929 C 193.688 238.204,193.757 238.244,193.757 238.038 C 193.757 237.858,193.673 237.515,193.569 237.275 C 193.451 237.000,193.382 236.960,193.382 237.166 M193.818 238.692 C 193.818 238.872,193.902 239.215,194.005 239.455 C 194.124 239.730,194.193 239.770,194.193 239.564 C 194.193 239.384,194.108 239.041,194.005 238.801 C 193.887 238.526,193.818 238.486,193.818 238.692 M106.231 241.744 C 106.231 242.643,106.270 243.011,106.317 242.561 C 106.364 242.112,106.364 241.376,106.317 240.926 C 106.270 240.477,106.231 240.845,106.231 241.744 M245.356 243.612 C 245.276 243.932,245.252 244.235,245.304 244.287 C 245.355 244.338,245.463 244.119,245.543 243.799 C 245.623 243.480,245.647 243.176,245.595 243.125 C 245.544 243.074,245.436 243.293,245.356 243.612 M106.241 245.995 C 106.242 247.433,106.277 247.993,106.320 247.239 C 106.362 246.485,106.362 245.308,106.319 244.624 C 106.276 243.939,106.241 244.556,106.241 245.995 M206.991 253.422 C 206.911 253.741,206.887 254.044,206.939 254.096 C 206.990 254.147,207.098 253.928,207.178 253.608 C 207.258 253.289,207.282 252.986,207.230 252.934 C 207.179 252.883,207.071 253.102,206.991 253.422 M150.733 286.866 C 150.733 304.191,150.759 311.278,150.790 302.616 C 150.822 293.954,150.822 279.779,150.790 271.117 C 150.759 262.455,150.733 269.542,150.733 286.866 M241.868 256.037 C 241.788 256.357,241.765 256.660,241.816 256.712 C 241.867 256.763,241.975 256.544,242.055 256.224 C 242.135 255.905,242.159 255.601,242.108 255.550 C 242.056 255.499,241.949 255.718,241.868 256.037 M240.343 261.487 C 240.262 261.806,240.239 262.110,240.290 262.161 C 240.342 262.213,240.449 261.993,240.529 261.674 C 240.610 261.354,240.633 261.051,240.582 261.000 C 240.530 260.948,240.423 261.168,240.343 261.487 M168.096 273.134 C 168.096 273.313,168.180 273.657,168.283 273.896 C 168.401 274.171,168.471 274.212,168.471 274.005 C 168.471 273.826,168.386 273.482,168.283 273.243 C 168.165 272.968,168.096 272.927,168.096 273.134 M95.140 278.202 L 94.278 279.128 95.204 278.266 C 96.066 277.465,96.231 277.275,96.066 277.275 C 96.030 277.275,95.614 277.692,95.140 278.202 M169.622 278.583 C 169.622 278.763,169.706 279.106,169.809 279.346 C 169.927 279.621,169.997 279.661,169.997 279.455 C 169.997 279.275,169.912 278.932,169.809 278.692 C 169.691 278.417,169.622 278.377,169.622 278.583 M235.329 279.362 C 235.249 279.681,235.225 279.984,235.277 280.036 C 235.328 280.087,235.436 279.868,235.516 279.548 C 235.596 279.229,235.620 278.926,235.568 278.874 C 235.517 278.823,235.409 279.042,235.329 279.362 M68.722 288.113 C 69.054 288.163,69.544 288.162,69.812 288.110 C 70.080 288.058,69.809 288.017,69.210 288.019 C 68.610 288.020,68.391 288.063,68.722 288.113 M174.636 296.458 C 174.636 296.638,174.720 296.981,174.823 297.221 C 174.941 297.496,175.010 297.536,175.010 297.330 C 175.010 297.150,174.926 296.807,174.823 296.567 C 174.705 296.292,174.636 296.252,174.636 296.458 M226.828 309.661 C 226.747 309.981,226.724 310.284,226.775 310.336 C 226.827 310.387,226.934 310.168,227.014 309.848 C 227.095 309.529,227.118 309.225,227.067 309.174 C 227.015 309.123,226.908 309.342,226.828 309.661 M112.645 312.970 C 112.750 318.114,112.830 318.609,112.873 314.387 C 112.896 312.079,112.842 310.191,112.752 310.190 C 112.662 310.190,112.614 311.441,112.645 312.970 M74.716 318.192 C 74.988 318.244,75.380 318.242,75.588 318.188 C 75.797 318.133,75.575 318.091,75.095 318.093 C 74.616 318.096,74.445 318.140,74.716 318.192 M69.477 318.413 C 69.864 318.462,70.551 318.462,71.003 318.415 C 71.456 318.368,71.139 318.329,70.300 318.328 C 69.460 318.327,69.090 318.365,69.477 318.413 M119.776 355.531 C 119.776 363.384,119.803 366.597,119.836 362.670 C 119.870 358.744,119.870 352.319,119.836 348.392 C 119.803 344.466,119.776 347.678,119.776 355.531 M218.086 355.531 C 218.086 363.384,218.114 366.597,218.147 362.670 C 218.180 358.744,218.180 352.319,218.147 348.392 C 218.114 344.466,218.086 347.678,218.086 355.531 M209.700 343.392 C 209.700 343.430,210.019 343.749,210.409 344.101 L 211.117 344.741 210.477 344.033 C 209.880 343.372,209.700 343.224,209.700 343.392 M377.766 343.392 C 377.766 343.430,378.084 343.749,378.474 344.101 L 379.183 344.741 378.542 344.033 C 377.946 343.372,377.766 343.224,377.766 343.392 M237.483 344.905 L 236.621 345.831 237.548 344.969 C 238.409 344.168,238.574 343.978,238.409 343.978 C 238.374 343.978,237.957 344.395,237.483 344.905 M260.272 344.741 C 260.679 345.161,261.061 345.504,261.121 345.504 C 261.181 345.504,260.897 345.161,260.490 344.741 C 260.084 344.322,259.702 343.978,259.642 343.978 C 259.582 343.978,259.866 344.322,260.272 344.741 M357.152 344.687 L 356.512 345.395 357.221 344.755 C 357.881 344.158,358.029 343.978,357.861 343.978 C 357.823 343.978,357.505 344.297,357.152 344.687 M253.951 348.406 C 253.951 348.444,254.270 348.762,254.659 349.115 L 255.368 349.755 254.728 349.046 C 254.131 348.386,253.951 348.238,253.951 348.406 M90.681 352.807 C 90.681 353.746,90.723 354.473,90.773 354.422 C 90.931 354.264,90.980 351.397,90.827 351.244 C 90.747 351.164,90.681 351.867,90.681 352.807 M279.455 353.460 C 279.455 354.759,279.498 355.779,279.550 355.727 C 279.704 355.573,279.744 351.388,279.593 351.237 C 279.517 351.161,279.455 352.162,279.455 353.460 M264.479 355.313 C 264.479 355.973,264.520 356.243,264.570 355.913 C 264.620 355.583,264.620 355.044,264.570 354.714 C 264.520 354.384,264.479 354.654,264.479 355.313 M146.332 355.531 C 146.332 356.191,146.373 356.460,146.423 356.131 C 146.473 355.801,146.473 355.262,146.423 354.932 C 146.373 354.602,146.332 354.872,146.332 355.531 M184.901 356.185 C 184.901 356.605,184.946 356.777,185.000 356.567 C 185.055 356.357,185.055 356.014,185.000 355.804 C 184.946 355.594,184.901 355.766,184.901 356.185 M103.288 357.951 C 103.248 358.802,103.289 359.543,103.379 359.598 C 103.469 359.654,103.542 358.957,103.542 358.051 C 103.542 355.970,103.383 355.907,103.288 357.951 M292.062 358.493 C 292.019 359.043,292.058 359.539,292.150 359.596 C 292.241 359.652,292.316 359.203,292.316 358.596 C 292.316 357.220,292.168 357.160,292.062 358.493 M161.962 358.420 C 161.962 358.510,163.531 358.583,165.450 358.583 C 167.368 358.583,168.937 358.510,168.937 358.420 C 168.937 358.330,167.368 358.256,165.450 358.256 C 163.531 358.256,161.962 358.330,161.962 358.420 M331.717 358.527 C 332.706 358.568,334.324 358.568,335.313 358.527 C 336.302 358.487,335.493 358.454,333.515 358.454 C 331.537 358.454,330.728 358.487,331.717 358.527 M33.201 358.746 C 34.736 358.784,37.189 358.783,38.650 358.746 C 40.112 358.708,38.856 358.677,35.858 358.678 C 32.861 358.678,31.665 358.709,33.201 358.746 M159.924 364.196 C 159.868 364.286,161.457 364.334,163.454 364.304 C 170.317 364.198,170.998 364.123,165.517 364.078 C 162.497 364.053,159.980 364.106,159.924 364.196 M330.505 364.195 C 332.026 364.233,334.577 364.233,336.172 364.196 C 337.768 364.158,336.523 364.128,333.406 364.128 C 330.289 364.128,328.983 364.158,330.505 364.195 M356.403 365.409 C 356.403 365.446,356.722 365.765,357.112 366.117 L 357.820 366.757 357.180 366.049 C 356.583 365.389,356.403 365.240,356.403 365.409 " stroke="none" fill="#dedede" fill-rule="evenodd"></path><path id="path3" d="M150.728 222.779 C 150.728 228.714,150.756 231.142,150.790 228.174 C 150.824 225.207,150.824 220.351,150.790 217.384 C 150.756 214.417,150.728 216.845,150.728 222.779 " stroke="none" fill="#efefef" fill-rule="evenodd"></path><path id="path4" d="M178.812 50.735 C 179.988 50.774,181.851 50.774,182.954 50.734 C 184.057 50.695,183.095 50.663,180.817 50.663 C 178.540 50.663,177.637 50.696,178.812 50.735 M217.396 50.735 C 218.571 50.774,220.434 50.774,221.537 50.734 C 222.640 50.695,221.678 50.663,219.401 50.663 C 217.123 50.663,216.220 50.696,217.396 50.735 M251.216 338.365 L 250.354 339.292 251.281 338.430 C 252.142 337.629,252.307 337.439,252.142 337.439 C 252.107 337.439,251.690 337.856,251.216 338.365 M377.758 346.104 L 376.567 347.357 377.820 346.165 C 378.510 345.510,379.074 344.946,379.074 344.912 C 379.074 344.750,378.865 344.939,377.758 346.104 " stroke="none" fill="#ffffff" fill-rule="evenodd"></path></g></svg>